<?xml version="1.0" encoding="utf-8" ?>
<!DOCTYPE svg PUBLIC "-//W3C//DTD SVG 1.1//EN" "http://www.w3.org/Graphics/SVG/1.1/DTD/svg11.dtd">
<svg height="573" version="1.1" width="762" xmlns="http://www.w3.org/2000/svg">
<line fill="#000000" stroke="#000000" stroke-width="1" x1="89" x2="89" y1="63" y2="68"/>
<line fill="#000000" stroke="#000000" stroke-width="1" x1="89" x2="89" y1="73" y2="78"/>
<line fill="#000000" stroke="#000000" stroke-width="1" x1="89" x2="89" y1="83" y2="88"/>
<line fill="#000000" stroke="#000000" stroke-width="1" x1="89" x2="89" y1="93" y2="98"/>
<line fill="#000000" stroke="#000000" stroke-width="1" x1="89" x2="89" y1="103" y2="108"/>
<line fill="#000000" stroke="#000000" stroke-width="1" x1="89" x2="89" y1="113" y2="118"/>
<line fill="#000000" stroke="#000000" stroke-width="1" x1="89" x2="89" y1="123" y2="128"/>
<line fill="#000000" stroke="#000000" stroke-width="1" x1="89" x2="89" y1="133" y2="138"/>
<line fill="#000000" stroke="#000000" stroke-width="1" x1="89" x2="89" y1="143" y2="148"/>
<line fill="#000000" stroke="#000000" stroke-width="1" x1="89" x2="89" y1="153" y2="158"/>
<line fill="#000000" stroke="#000000" stroke-width="1" x1="89" x2="89" y1="163" y2="168"/>
<line fill="#000000" stroke="#000000" stroke-width="1" x1="89" x2="89" y1="173" y2="178"/>
<line fill="#000000" stroke="#000000" stroke-width="1" x1="89" x2="89" y1="183" y2="188"/>
<line fill="#000000" stroke="#000000" stroke-width="1" x1="89" x2="89" y1="193" y2="198"/>
<line fill="#000000" stroke="#000000" stroke-width="1" x1="89" x2="89" y1="203" y2="208"/>
<line fill="#000000" stroke="#000000" stroke-width="1" x1="89" x2="89" y1="213" y2="218"/>
<line fill="#000000" stroke="#000000" stroke-width="1" x1="89" x2="89" y1="223" y2="228"/>
<line fill="#000000" stroke="#000000" stroke-width="1" x1="89" x2="89" y1="233" y2="238"/>
<line fill="#000000" stroke="#000000" stroke-width="1" x1="89" x2="89" y1="243" y2="248"/>
<line fill="#000000" stroke="#000000" stroke-width="1" x1="89" x2="89" y1="253" y2="258"/>
<line fill="#000000" stroke="#000000" stroke-width="1" x1="89" x2="89" y1="263" y2="268"/>
<line fill="#000000" stroke="#000000" stroke-width="1" x1="89" x2="89" y1="273" y2="278"/>
<line fill="#000000" stroke="#000000" stroke-width="1" x1="89" x2="89" y1="283" y2="288"/>
<line fill="#000000" stroke="#000000" stroke-width="1" x1="89" x2="89" y1="293" y2="298"/>
<line fill="#000000" stroke="#000000" stroke-width="1" x1="89" x2="89" y1="303" y2="308"/>
<line fill="#000000" stroke="#000000" stroke-width="1" x1="89" x2="89" y1="313" y2="318"/>
<line fill="#000000" stroke="#000000" stroke-width="1" x1="89" x2="89" y1="323" y2="328"/>
<line fill="#000000" stroke="#000000" stroke-width="1" x1="89" x2="89" y1="333" y2="338"/>
<line fill="#000000" stroke="#000000" stroke-width="1" x1="89" x2="89" y1="343" y2="348"/>
<line fill="#000000" stroke="#000000" stroke-width="1" x1="89" x2="89" y1="353" y2="358"/>
<line fill="#000000" stroke="#000000" stroke-width="1" x1="89" x2="89" y1="363" y2="368"/>
<line fill="#000000" stroke="#000000" stroke-width="1" x1="89" x2="89" y1="373" y2="378"/>
<line fill="#000000" stroke="#000000" stroke-width="1" x1="89" x2="89" y1="383" y2="388"/>
<line fill="#000000" stroke="#000000" stroke-width="1" x1="89" x2="89" y1="393" y2="398"/>
<line fill="#000000" stroke="#000000" stroke-width="1" x1="89" x2="89" y1="403" y2="408"/>
<line fill="#000000" stroke="#000000" stroke-width="1" x1="89" x2="89" y1="413" y2="418"/>
<line fill="#000000" stroke="#000000" stroke-width="1" x1="89" x2="89" y1="423" y2="428"/>
<line fill="#000000" stroke="#000000" stroke-width="1" x1="89" x2="89" y1="433" y2="438"/>
<line fill="#000000" stroke="#000000" stroke-width="1" x1="89" x2="89" y1="443" y2="448"/>
<line fill="#000000" stroke="#000000" stroke-width="1" x1="89" x2="89" y1="453" y2="458"/>
<line fill="#000000" stroke="#000000" stroke-width="1" x1="89" x2="89" y1="463" y2="468"/>
<line fill="#000000" stroke="#000000" stroke-width="1" x1="89" x2="89" y1="473" y2="478"/>
<line fill="#000000" stroke="#000000" stroke-width="1" x1="89" x2="89" y1="483" y2="488"/>
<line fill="#000000" stroke="#000000" stroke-width="1" x1="89" x2="89" y1="493" y2="498"/>
<line fill="#000000" stroke="#000000" stroke-width="1" x1="89" x2="89" y1="503" y2="508"/>
<line fill="#000000" stroke="#000000" stroke-width="1" x1="89" x2="89" y1="513" y2="518"/>
<line fill="#000000" stroke="#000000" stroke-width="1" x1="89" x2="89" y1="523" y2="528"/>
<line fill="#000000" stroke="#000000" stroke-width="1" x1="89" x2="89" y1="533" y2="538"/>
<line fill="#000000" stroke="#000000" stroke-width="1" x1="89" x2="89" y1="543" y2="548"/>
<line fill="#000000" stroke="#000000" stroke-width="1" x1="89" x2="89" y1="553" y2="558"/>
<rect fill="#ffffff" height="495" stroke="#ffffff" stroke-width="1" width="20" x="79" y="63"/>
<rect fill="none" height="495" stroke="#000000" stroke-width="1" width="20" x="79" y="63"/>
<rect fill="#ffffff" height="50" stroke="#ffffff" stroke-width="1" width="150" x="14" y="14"/>
<rect fill="none" height="50" stroke="#000000" stroke-width="1" width="150" x="14" y="14"/>
<text font-family="Dialog" font-size="12" x="53" y="46">
/Encargado</text>
<text font-family="Dialog" font-size="12" x="52" y="27">
&lt;&lt;Actor&gt;&gt;</text>
<line fill="#000000" stroke="#000000" stroke-width="1" x1="473" x2="473" y1="63" y2="68"/>
<line fill="#000000" stroke="#000000" stroke-width="1" x1="473" x2="473" y1="73" y2="78"/>
<line fill="#000000" stroke="#000000" stroke-width="1" x1="473" x2="473" y1="83" y2="88"/>
<line fill="#000000" stroke="#000000" stroke-width="1" x1="473" x2="473" y1="93" y2="98"/>
<line fill="#000000" stroke="#000000" stroke-width="1" x1="473" x2="473" y1="103" y2="108"/>
<line fill="#000000" stroke="#000000" stroke-width="1" x1="473" x2="473" y1="113" y2="118"/>
<line fill="#000000" stroke="#000000" stroke-width="1" x1="473" x2="473" y1="123" y2="128"/>
<line fill="#000000" stroke="#000000" stroke-width="1" x1="473" x2="473" y1="133" y2="138"/>
<line fill="#000000" stroke="#000000" stroke-width="1" x1="473" x2="473" y1="143" y2="148"/>
<line fill="#000000" stroke="#000000" stroke-width="1" x1="473" x2="473" y1="153" y2="158"/>
<line fill="#000000" stroke="#000000" stroke-width="1" x1="473" x2="473" y1="163" y2="168"/>
<line fill="#000000" stroke="#000000" stroke-width="1" x1="473" x2="473" y1="173" y2="178"/>
<line fill="#000000" stroke="#000000" stroke-width="1" x1="473" x2="473" y1="183" y2="188"/>
<line fill="#000000" stroke="#000000" stroke-width="1" x1="473" x2="473" y1="193" y2="198"/>
<line fill="#000000" stroke="#000000" stroke-width="1" x1="473" x2="473" y1="203" y2="208"/>
<line fill="#000000" stroke="#000000" stroke-width="1" x1="473" x2="473" y1="213" y2="218"/>
<line fill="#000000" stroke="#000000" stroke-width="1" x1="473" x2="473" y1="223" y2="228"/>
<line fill="#000000" stroke="#000000" stroke-width="1" x1="473" x2="473" y1="233" y2="238"/>
<line fill="#000000" stroke="#000000" stroke-width="1" x1="473" x2="473" y1="243" y2="248"/>
<line fill="#000000" stroke="#000000" stroke-width="1" x1="473" x2="473" y1="253" y2="258"/>
<line fill="#000000" stroke="#000000" stroke-width="1" x1="473" x2="473" y1="263" y2="268"/>
<line fill="#000000" stroke="#000000" stroke-width="1" x1="473" x2="473" y1="273" y2="278"/>
<line fill="#000000" stroke="#000000" stroke-width="1" x1="473" x2="473" y1="283" y2="288"/>
<line fill="#000000" stroke="#000000" stroke-width="1" x1="473" x2="473" y1="293" y2="298"/>
<line fill="#000000" stroke="#000000" stroke-width="1" x1="473" x2="473" y1="303" y2="308"/>
<line fill="#000000" stroke="#000000" stroke-width="1" x1="473" x2="473" y1="313" y2="318"/>
<line fill="#000000" stroke="#000000" stroke-width="1" x1="473" x2="473" y1="323" y2="328"/>
<line fill="#000000" stroke="#000000" stroke-width="1" x1="473" x2="473" y1="333" y2="338"/>
<line fill="#000000" stroke="#000000" stroke-width="1" x1="473" x2="473" y1="343" y2="348"/>
<line fill="#000000" stroke="#000000" stroke-width="1" x1="473" x2="473" y1="353" y2="358"/>
<line fill="#000000" stroke="#000000" stroke-width="1" x1="473" x2="473" y1="363" y2="368"/>
<line fill="#000000" stroke="#000000" stroke-width="1" x1="473" x2="473" y1="373" y2="378"/>
<line fill="#000000" stroke="#000000" stroke-width="1" x1="473" x2="473" y1="383" y2="388"/>
<line fill="#000000" stroke="#000000" stroke-width="1" x1="473" x2="473" y1="393" y2="398"/>
<line fill="#000000" stroke="#000000" stroke-width="1" x1="473" x2="473" y1="403" y2="408"/>
<line fill="#000000" stroke="#000000" stroke-width="1" x1="473" x2="473" y1="413" y2="418"/>
<line fill="#000000" stroke="#000000" stroke-width="1" x1="473" x2="473" y1="423" y2="428"/>
<line fill="#000000" stroke="#000000" stroke-width="1" x1="473" x2="473" y1="433" y2="438"/>
<line fill="#000000" stroke="#000000" stroke-width="1" x1="473" x2="473" y1="443" y2="448"/>
<line fill="#000000" stroke="#000000" stroke-width="1" x1="473" x2="473" y1="453" y2="458"/>
<line fill="#000000" stroke="#000000" stroke-width="1" x1="473" x2="473" y1="463" y2="468"/>
<line fill="#000000" stroke="#000000" stroke-width="1" x1="473" x2="473" y1="473" y2="478"/>
<line fill="#000000" stroke="#000000" stroke-width="1" x1="473" x2="473" y1="483" y2="488"/>
<line fill="#000000" stroke="#000000" stroke-width="1" x1="473" x2="473" y1="493" y2="498"/>
<line fill="#000000" stroke="#000000" stroke-width="1" x1="473" x2="473" y1="503" y2="508"/>
<line fill="#000000" stroke="#000000" stroke-width="1" x1="473" x2="473" y1="513" y2="518"/>
<line fill="#000000" stroke="#000000" stroke-width="1" x1="473" x2="473" y1="523" y2="528"/>
<line fill="#000000" stroke="#000000" stroke-width="1" x1="473" x2="473" y1="533" y2="538"/>
<line fill="#000000" stroke="#000000" stroke-width="1" x1="473" x2="473" y1="543" y2="548"/>
<line fill="#000000" stroke="#000000" stroke-width="1" x1="473" x2="473" y1="553" y2="556"/>
<rect fill="#ffffff" height="493" stroke="#ffffff" stroke-width="1" width="20" x="463" y="63"/>
<rect fill="none" height="493" stroke="#000000" stroke-width="1" width="20" x="463" y="63"/>
<rect fill="#ffffff" height="50" stroke="#ffffff" stroke-width="1" width="150" x="398" y="14"/>
<rect fill="none" height="50" stroke="#000000" stroke-width="1" width="150" x="398" y="14"/>
<text font-family="Dialog" font-size="12" x="426" y="46">
/FormRegMant.</text>
<text font-family="Dialog" font-size="12" x="428" y="27">
&lt;&lt;process&gt;&gt;</text>
<line fill="#000000" stroke="#000000" stroke-width="1" x1="281" x2="281" y1="63" y2="68"/>
<line fill="#000000" stroke="#000000" stroke-width="1" x1="281" x2="281" y1="73" y2="78"/>
<line fill="#000000" stroke="#000000" stroke-width="1" x1="281" x2="281" y1="83" y2="88"/>
<line fill="#000000" stroke="#000000" stroke-width="1" x1="281" x2="281" y1="93" y2="98"/>
<line fill="#000000" stroke="#000000" stroke-width="1" x1="281" x2="281" y1="103" y2="108"/>
<line fill="#000000" stroke="#000000" stroke-width="1" x1="281" x2="281" y1="113" y2="118"/>
<line fill="#000000" stroke="#000000" stroke-width="1" x1="281" x2="281" y1="123" y2="128"/>
<line fill="#000000" stroke="#000000" stroke-width="1" x1="281" x2="281" y1="133" y2="138"/>
<line fill="#000000" stroke="#000000" stroke-width="1" x1="281" x2="281" y1="143" y2="148"/>
<line fill="#000000" stroke="#000000" stroke-width="1" x1="281" x2="281" y1="153" y2="158"/>
<line fill="#000000" stroke="#000000" stroke-width="1" x1="281" x2="281" y1="163" y2="168"/>
<line fill="#000000" stroke="#000000" stroke-width="1" x1="281" x2="281" y1="173" y2="178"/>
<line fill="#000000" stroke="#000000" stroke-width="1" x1="281" x2="281" y1="183" y2="188"/>
<line fill="#000000" stroke="#000000" stroke-width="1" x1="281" x2="281" y1="193" y2="198"/>
<line fill="#000000" stroke="#000000" stroke-width="1" x1="281" x2="281" y1="203" y2="208"/>
<line fill="#000000" stroke="#000000" stroke-width="1" x1="281" x2="281" y1="213" y2="218"/>
<line fill="#000000" stroke="#000000" stroke-width="1" x1="281" x2="281" y1="223" y2="228"/>
<line fill="#000000" stroke="#000000" stroke-width="1" x1="281" x2="281" y1="233" y2="238"/>
<line fill="#000000" stroke="#000000" stroke-width="1" x1="281" x2="281" y1="243" y2="248"/>
<line fill="#000000" stroke="#000000" stroke-width="1" x1="281" x2="281" y1="253" y2="258"/>
<line fill="#000000" stroke="#000000" stroke-width="1" x1="281" x2="281" y1="263" y2="268"/>
<line fill="#000000" stroke="#000000" stroke-width="1" x1="281" x2="281" y1="273" y2="278"/>
<line fill="#000000" stroke="#000000" stroke-width="1" x1="281" x2="281" y1="283" y2="288"/>
<line fill="#000000" stroke="#000000" stroke-width="1" x1="281" x2="281" y1="293" y2="298"/>
<line fill="#000000" stroke="#000000" stroke-width="1" x1="281" x2="281" y1="303" y2="308"/>
<line fill="#000000" stroke="#000000" stroke-width="1" x1="281" x2="281" y1="313" y2="318"/>
<line fill="#000000" stroke="#000000" stroke-width="1" x1="281" x2="281" y1="323" y2="328"/>
<line fill="#000000" stroke="#000000" stroke-width="1" x1="281" x2="281" y1="333" y2="338"/>
<line fill="#000000" stroke="#000000" stroke-width="1" x1="281" x2="281" y1="343" y2="348"/>
<line fill="#000000" stroke="#000000" stroke-width="1" x1="281" x2="281" y1="353" y2="358"/>
<line fill="#000000" stroke="#000000" stroke-width="1" x1="281" x2="281" y1="363" y2="368"/>
<line fill="#000000" stroke="#000000" stroke-width="1" x1="281" x2="281" y1="373" y2="378"/>
<line fill="#000000" stroke="#000000" stroke-width="1" x1="281" x2="281" y1="383" y2="388"/>
<line fill="#000000" stroke="#000000" stroke-width="1" x1="281" x2="281" y1="393" y2="398"/>
<line fill="#000000" stroke="#000000" stroke-width="1" x1="281" x2="281" y1="403" y2="408"/>
<line fill="#000000" stroke="#000000" stroke-width="1" x1="281" x2="281" y1="413" y2="418"/>
<line fill="#000000" stroke="#000000" stroke-width="1" x1="281" x2="281" y1="423" y2="428"/>
<line fill="#000000" stroke="#000000" stroke-width="1" x1="281" x2="281" y1="433" y2="438"/>
<line fill="#000000" stroke="#000000" stroke-width="1" x1="281" x2="281" y1="443" y2="448"/>
<line fill="#000000" stroke="#000000" stroke-width="1" x1="281" x2="281" y1="453" y2="458"/>
<line fill="#000000" stroke="#000000" stroke-width="1" x1="281" x2="281" y1="463" y2="468"/>
<line fill="#000000" stroke="#000000" stroke-width="1" x1="281" x2="281" y1="473" y2="478"/>
<line fill="#000000" stroke="#000000" stroke-width="1" x1="281" x2="281" y1="483" y2="488"/>
<line fill="#000000" stroke="#000000" stroke-width="1" x1="281" x2="281" y1="493" y2="498"/>
<line fill="#000000" stroke="#000000" stroke-width="1" x1="281" x2="281" y1="503" y2="508"/>
<line fill="#000000" stroke="#000000" stroke-width="1" x1="281" x2="281" y1="513" y2="518"/>
<line fill="#000000" stroke="#000000" stroke-width="1" x1="281" x2="281" y1="523" y2="528"/>
<line fill="#000000" stroke="#000000" stroke-width="1" x1="281" x2="281" y1="533" y2="538"/>
<line fill="#000000" stroke="#000000" stroke-width="1" x1="281" x2="281" y1="543" y2="548"/>
<line fill="#000000" stroke="#000000" stroke-width="1" x1="281" x2="281" y1="553" y2="557"/>
<rect fill="#ffffff" height="50" stroke="#ffffff" stroke-width="1" width="20" x="271" y="110"/>
<rect fill="none" height="50" stroke="#000000" stroke-width="1" width="20" x="271" y="110"/>
<rect fill="#ffffff" height="50" stroke="#ffffff" stroke-width="1" width="150" x="206" y="14"/>
<rect fill="none" height="50" stroke="#000000" stroke-width="1" width="150" x="206" y="14"/>
<text font-family="Dialog" font-size="12" x="250" y="46">
/AuthUser</text>
<text font-family="Dialog" font-size="12" x="239" y="27">
&lt;&lt;system&gt;&gt;</text>
<line fill="#000000" stroke="#000000" stroke-width="1" x1="673" x2="673" y1="63" y2="68"/>
<line fill="#000000" stroke="#000000" stroke-width="1" x1="673" x2="673" y1="73" y2="78"/>
<line fill="#000000" stroke="#000000" stroke-width="1" x1="673" x2="673" y1="83" y2="88"/>
<line fill="#000000" stroke="#000000" stroke-width="1" x1="673" x2="673" y1="93" y2="98"/>
<line fill="#000000" stroke="#000000" stroke-width="1" x1="673" x2="673" y1="103" y2="108"/>
<line fill="#000000" stroke="#000000" stroke-width="1" x1="673" x2="673" y1="113" y2="118"/>
<line fill="#000000" stroke="#000000" stroke-width="1" x1="673" x2="673" y1="123" y2="128"/>
<line fill="#000000" stroke="#000000" stroke-width="1" x1="673" x2="673" y1="133" y2="138"/>
<line fill="#000000" stroke="#000000" stroke-width="1" x1="673" x2="673" y1="143" y2="148"/>
<line fill="#000000" stroke="#000000" stroke-width="1" x1="673" x2="673" y1="153" y2="158"/>
<line fill="#000000" stroke="#000000" stroke-width="1" x1="673" x2="673" y1="163" y2="168"/>
<line fill="#000000" stroke="#000000" stroke-width="1" x1="673" x2="673" y1="173" y2="178"/>
<line fill="#000000" stroke="#000000" stroke-width="1" x1="673" x2="673" y1="183" y2="188"/>
<line fill="#000000" stroke="#000000" stroke-width="1" x1="673" x2="673" y1="193" y2="198"/>
<line fill="#000000" stroke="#000000" stroke-width="1" x1="673" x2="673" y1="203" y2="208"/>
<line fill="#000000" stroke="#000000" stroke-width="1" x1="673" x2="673" y1="213" y2="218"/>
<line fill="#000000" stroke="#000000" stroke-width="1" x1="673" x2="673" y1="223" y2="228"/>
<line fill="#000000" stroke="#000000" stroke-width="1" x1="673" x2="673" y1="233" y2="238"/>
<line fill="#000000" stroke="#000000" stroke-width="1" x1="673" x2="673" y1="243" y2="248"/>
<line fill="#000000" stroke="#000000" stroke-width="1" x1="673" x2="673" y1="253" y2="258"/>
<line fill="#000000" stroke="#000000" stroke-width="1" x1="673" x2="673" y1="263" y2="268"/>
<line fill="#000000" stroke="#000000" stroke-width="1" x1="673" x2="673" y1="273" y2="278"/>
<line fill="#000000" stroke="#000000" stroke-width="1" x1="673" x2="673" y1="283" y2="288"/>
<line fill="#000000" stroke="#000000" stroke-width="1" x1="673" x2="673" y1="293" y2="298"/>
<line fill="#000000" stroke="#000000" stroke-width="1" x1="673" x2="673" y1="303" y2="308"/>
<line fill="#000000" stroke="#000000" stroke-width="1" x1="673" x2="673" y1="313" y2="318"/>
<line fill="#000000" stroke="#000000" stroke-width="1" x1="673" x2="673" y1="323" y2="328"/>
<line fill="#000000" stroke="#000000" stroke-width="1" x1="673" x2="673" y1="333" y2="338"/>
<line fill="#000000" stroke="#000000" stroke-width="1" x1="673" x2="673" y1="343" y2="348"/>
<line fill="#000000" stroke="#000000" stroke-width="1" x1="673" x2="673" y1="353" y2="358"/>
<line fill="#000000" stroke="#000000" stroke-width="1" x1="673" x2="673" y1="363" y2="368"/>
<line fill="#000000" stroke="#000000" stroke-width="1" x1="673" x2="673" y1="373" y2="378"/>
<line fill="#000000" stroke="#000000" stroke-width="1" x1="673" x2="673" y1="383" y2="388"/>
<line fill="#000000" stroke="#000000" stroke-width="1" x1="673" x2="673" y1="393" y2="398"/>
<line fill="#000000" stroke="#000000" stroke-width="1" x1="673" x2="673" y1="403" y2="408"/>
<line fill="#000000" stroke="#000000" stroke-width="1" x1="673" x2="673" y1="413" y2="418"/>
<line fill="#000000" stroke="#000000" stroke-width="1" x1="673" x2="673" y1="423" y2="428"/>
<line fill="#000000" stroke="#000000" stroke-width="1" x1="673" x2="673" y1="433" y2="438"/>
<line fill="#000000" stroke="#000000" stroke-width="1" x1="673" x2="673" y1="443" y2="448"/>
<line fill="#000000" stroke="#000000" stroke-width="1" x1="673" x2="673" y1="453" y2="458"/>
<line fill="#000000" stroke="#000000" stroke-width="1" x1="673" x2="673" y1="463" y2="468"/>
<line fill="#000000" stroke="#000000" stroke-width="1" x1="673" x2="673" y1="473" y2="478"/>
<line fill="#000000" stroke="#000000" stroke-width="1" x1="673" x2="673" y1="483" y2="488"/>
<line fill="#000000" stroke="#000000" stroke-width="1" x1="673" x2="673" y1="493" y2="498"/>
<line fill="#000000" stroke="#000000" stroke-width="1" x1="673" x2="673" y1="503" y2="508"/>
<line fill="#000000" stroke="#000000" stroke-width="1" x1="673" x2="673" y1="513" y2="518"/>
<line fill="#000000" stroke="#000000" stroke-width="1" x1="673" x2="673" y1="523" y2="528"/>
<line fill="#000000" stroke="#000000" stroke-width="1" x1="673" x2="673" y1="533" y2="538"/>
<line fill="#000000" stroke="#000000" stroke-width="1" x1="673" x2="673" y1="543" y2="548"/>
<line fill="#000000" stroke="#000000" stroke-width="1" x1="673" x2="673" y1="553" y2="557"/>
<rect fill="#ffffff" height="50" stroke="#ffffff" stroke-width="1" width="20" x="663" y="230"/>
<rect fill="none" height="50" stroke="#000000" stroke-width="1" width="20" x="663" y="230"/>
<rect fill="#ffffff" height="50" stroke="#ffffff" stroke-width="1" width="150" x="598" y="14"/>
<rect fill="none" height="50" stroke="#000000" stroke-width="1" width="150" x="598" y="14"/>
<text font-family="Dialog" font-size="12" x="612" y="46">
/RegMantenimiento</text>
<text font-family="Dialog" font-size="12" x="631" y="27">
&lt;&lt;system&gt;&gt;</text>
<polyline fill="none" points="99,110 271,110" stroke="#000000" stroke-width="1"/>
<polygon fill="#000000" points="271,110 259,117 259,103" stroke="#000000" stroke-width="1"/>
<polygon fill="none" points="271,110 259,117 259,103" stroke="#000000" stroke-width="1"/>
<text font-family="Dialog" font-size="12" x="140" y="105">
Inicia sesion</text>
<polyline fill="none" points="271,160 99,160" stroke="#000000" stroke-width="1"/>
<line fill="#000000" stroke="#000000" stroke-width="1" x1="111" x2="99" y1="153" y2="160"/>
<line fill="#000000" stroke="#000000" stroke-width="1" x1="111" x2="99" y1="167" y2="160"/>
<text font-family="Dialog" font-size="12" x="139" y="155">
Ingresa al sistema</text>
<line fill="#000000" stroke="#000000" stroke-width="1" x1="99" x2="104" y1="198" y2="198"/>
<line fill="#000000" stroke="#000000" stroke-width="1" x1="109" x2="114" y1="198" y2="198"/>
<line fill="#000000" stroke="#000000" stroke-width="1" x1="119" x2="124" y1="198" y2="198"/>
<line fill="#000000" stroke="#000000" stroke-width="1" x1="129" x2="134" y1="198" y2="198"/>
<line fill="#000000" stroke="#000000" stroke-width="1" x1="139" x2="144" y1="198" y2="198"/>
<line fill="#000000" stroke="#000000" stroke-width="1" x1="149" x2="154" y1="198" y2="198"/>
<line fill="#000000" stroke="#000000" stroke-width="1" x1="159" x2="164" y1="198" y2="198"/>
<line fill="#000000" stroke="#000000" stroke-width="1" x1="169" x2="174" y1="198" y2="198"/>
<line fill="#000000" stroke="#000000" stroke-width="1" x1="179" x2="184" y1="198" y2="198"/>
<line fill="#000000" stroke="#000000" stroke-width="1" x1="189" x2="194" y1="198" y2="198"/>
<line fill="#000000" stroke="#000000" stroke-width="1" x1="199" x2="204" y1="198" y2="198"/>
<line fill="#000000" stroke="#000000" stroke-width="1" x1="209" x2="214" y1="198" y2="198"/>
<line fill="#000000" stroke="#000000" stroke-width="1" x1="219" x2="224" y1="198" y2="198"/>
<line fill="#000000" stroke="#000000" stroke-width="1" x1="229" x2="234" y1="198" y2="198"/>
<line fill="#000000" stroke="#000000" stroke-width="1" x1="239" x2="244" y1="198" y2="198"/>
<line fill="#000000" stroke="#000000" stroke-width="1" x1="249" x2="254" y1="198" y2="198"/>
<line fill="#000000" stroke="#000000" stroke-width="1" x1="259" x2="264" y1="198" y2="198"/>
<line fill="#000000" stroke="#000000" stroke-width="1" x1="269" x2="274" y1="198" y2="198"/>
<line fill="#000000" stroke="#000000" stroke-width="1" x1="279" x2="284" y1="198" y2="198"/>
<line fill="#000000" stroke="#000000" stroke-width="1" x1="289" x2="294" y1="198" y2="198"/>
<line fill="#000000" stroke="#000000" stroke-width="1" x1="299" x2="304" y1="198" y2="198"/>
<line fill="#000000" stroke="#000000" stroke-width="1" x1="309" x2="314" y1="198" y2="198"/>
<line fill="#000000" stroke="#000000" stroke-width="1" x1="319" x2="324" y1="198" y2="198"/>
<line fill="#000000" stroke="#000000" stroke-width="1" x1="329" x2="334" y1="198" y2="198"/>
<line fill="#000000" stroke="#000000" stroke-width="1" x1="339" x2="344" y1="198" y2="198"/>
<line fill="#000000" stroke="#000000" stroke-width="1" x1="349" x2="354" y1="198" y2="198"/>
<line fill="#000000" stroke="#000000" stroke-width="1" x1="359" x2="364" y1="198" y2="198"/>
<line fill="#000000" stroke="#000000" stroke-width="1" x1="369" x2="374" y1="198" y2="198"/>
<line fill="#000000" stroke="#000000" stroke-width="1" x1="379" x2="384" y1="198" y2="198"/>
<line fill="#000000" stroke="#000000" stroke-width="1" x1="389" x2="394" y1="198" y2="198"/>
<line fill="#000000" stroke="#000000" stroke-width="1" x1="399" x2="404" y1="198" y2="198"/>
<line fill="#000000" stroke="#000000" stroke-width="1" x1="409" x2="414" y1="198" y2="198"/>
<line fill="#000000" stroke="#000000" stroke-width="1" x1="419" x2="424" y1="198" y2="198"/>
<line fill="#000000" stroke="#000000" stroke-width="1" x1="429" x2="434" y1="198" y2="198"/>
<line fill="#000000" stroke="#000000" stroke-width="1" x1="439" x2="444" y1="198" y2="198"/>
<line fill="#000000" stroke="#000000" stroke-width="1" x1="449" x2="454" y1="198" y2="198"/>
<line fill="#000000" stroke="#000000" stroke-width="1" x1="459" x2="463" y1="198" y2="198"/>
<line fill="#000000" stroke="#000000" stroke-width="1" x1="451" x2="463" y1="205" y2="198"/>
<line fill="#000000" stroke="#000000" stroke-width="1" x1="451" x2="463" y1="191" y2="198"/>
<text font-family="Dialog" font-size="12" x="118" y="193">
Llena el form para el mant. de un auto</text>
<polyline fill="none" points="483,230 663,230" stroke="#000000" stroke-width="1"/>
<polygon fill="#000000" points="663,230 651,237 651,223" stroke="#000000" stroke-width="1"/>
<polygon fill="none" points="663,230 651,237 651,223" stroke="#000000" stroke-width="1"/>
<text font-family="Dialog" font-size="12" x="528" y="225">
guardarForm()</text>
<polyline fill="none" points="663,280 483,280" stroke="#000000" stroke-width="1"/>
<line fill="#000000" stroke="#000000" stroke-width="1" x1="495" x2="483" y1="273" y2="280"/>
<line fill="#000000" stroke="#000000" stroke-width="1" x1="495" x2="483" y1="287" y2="280"/>
<text font-family="Dialog" font-size="12" x="503" y="275">
msg: Form guardado</text>
</svg>
