<?xml version="1.0" encoding="utf-8" ?>
<!DOCTYPE svg PUBLIC "-//W3C//DTD SVG 1.1//EN" "http://www.w3.org/Graphics/SVG/1.1/DTD/svg11.dtd">
<svg height="575" version="1.1" width="978" xmlns="http://www.w3.org/2000/svg">
<line fill="#000000" stroke="#000000" stroke-width="1" x1="89" x2="89" y1="63" y2="68"/>
<line fill="#000000" stroke="#000000" stroke-width="1" x1="89" x2="89" y1="73" y2="78"/>
<line fill="#000000" stroke="#000000" stroke-width="1" x1="89" x2="89" y1="83" y2="88"/>
<line fill="#000000" stroke="#000000" stroke-width="1" x1="89" x2="89" y1="93" y2="98"/>
<line fill="#000000" stroke="#000000" stroke-width="1" x1="89" x2="89" y1="103" y2="108"/>
<line fill="#000000" stroke="#000000" stroke-width="1" x1="89" x2="89" y1="113" y2="118"/>
<line fill="#000000" stroke="#000000" stroke-width="1" x1="89" x2="89" y1="123" y2="128"/>
<line fill="#000000" stroke="#000000" stroke-width="1" x1="89" x2="89" y1="133" y2="138"/>
<line fill="#000000" stroke="#000000" stroke-width="1" x1="89" x2="89" y1="143" y2="148"/>
<line fill="#000000" stroke="#000000" stroke-width="1" x1="89" x2="89" y1="153" y2="158"/>
<line fill="#000000" stroke="#000000" stroke-width="1" x1="89" x2="89" y1="163" y2="168"/>
<line fill="#000000" stroke="#000000" stroke-width="1" x1="89" x2="89" y1="173" y2="178"/>
<line fill="#000000" stroke="#000000" stroke-width="1" x1="89" x2="89" y1="183" y2="188"/>
<line fill="#000000" stroke="#000000" stroke-width="1" x1="89" x2="89" y1="193" y2="198"/>
<line fill="#000000" stroke="#000000" stroke-width="1" x1="89" x2="89" y1="203" y2="208"/>
<line fill="#000000" stroke="#000000" stroke-width="1" x1="89" x2="89" y1="213" y2="218"/>
<line fill="#000000" stroke="#000000" stroke-width="1" x1="89" x2="89" y1="223" y2="228"/>
<line fill="#000000" stroke="#000000" stroke-width="1" x1="89" x2="89" y1="233" y2="238"/>
<line fill="#000000" stroke="#000000" stroke-width="1" x1="89" x2="89" y1="243" y2="248"/>
<line fill="#000000" stroke="#000000" stroke-width="1" x1="89" x2="89" y1="253" y2="258"/>
<line fill="#000000" stroke="#000000" stroke-width="1" x1="89" x2="89" y1="263" y2="268"/>
<line fill="#000000" stroke="#000000" stroke-width="1" x1="89" x2="89" y1="273" y2="278"/>
<line fill="#000000" stroke="#000000" stroke-width="1" x1="89" x2="89" y1="283" y2="288"/>
<line fill="#000000" stroke="#000000" stroke-width="1" x1="89" x2="89" y1="293" y2="298"/>
<line fill="#000000" stroke="#000000" stroke-width="1" x1="89" x2="89" y1="303" y2="308"/>
<line fill="#000000" stroke="#000000" stroke-width="1" x1="89" x2="89" y1="313" y2="318"/>
<line fill="#000000" stroke="#000000" stroke-width="1" x1="89" x2="89" y1="323" y2="328"/>
<line fill="#000000" stroke="#000000" stroke-width="1" x1="89" x2="89" y1="333" y2="338"/>
<line fill="#000000" stroke="#000000" stroke-width="1" x1="89" x2="89" y1="343" y2="348"/>
<line fill="#000000" stroke="#000000" stroke-width="1" x1="89" x2="89" y1="353" y2="358"/>
<line fill="#000000" stroke="#000000" stroke-width="1" x1="89" x2="89" y1="363" y2="368"/>
<line fill="#000000" stroke="#000000" stroke-width="1" x1="89" x2="89" y1="373" y2="378"/>
<line fill="#000000" stroke="#000000" stroke-width="1" x1="89" x2="89" y1="383" y2="388"/>
<line fill="#000000" stroke="#000000" stroke-width="1" x1="89" x2="89" y1="393" y2="398"/>
<line fill="#000000" stroke="#000000" stroke-width="1" x1="89" x2="89" y1="403" y2="408"/>
<line fill="#000000" stroke="#000000" stroke-width="1" x1="89" x2="89" y1="413" y2="418"/>
<line fill="#000000" stroke="#000000" stroke-width="1" x1="89" x2="89" y1="423" y2="428"/>
<line fill="#000000" stroke="#000000" stroke-width="1" x1="89" x2="89" y1="433" y2="438"/>
<line fill="#000000" stroke="#000000" stroke-width="1" x1="89" x2="89" y1="443" y2="448"/>
<line fill="#000000" stroke="#000000" stroke-width="1" x1="89" x2="89" y1="453" y2="458"/>
<line fill="#000000" stroke="#000000" stroke-width="1" x1="89" x2="89" y1="463" y2="468"/>
<line fill="#000000" stroke="#000000" stroke-width="1" x1="89" x2="89" y1="473" y2="478"/>
<line fill="#000000" stroke="#000000" stroke-width="1" x1="89" x2="89" y1="483" y2="488"/>
<line fill="#000000" stroke="#000000" stroke-width="1" x1="89" x2="89" y1="493" y2="498"/>
<line fill="#000000" stroke="#000000" stroke-width="1" x1="89" x2="89" y1="503" y2="508"/>
<line fill="#000000" stroke="#000000" stroke-width="1" x1="89" x2="89" y1="513" y2="518"/>
<line fill="#000000" stroke="#000000" stroke-width="1" x1="89" x2="89" y1="523" y2="528"/>
<line fill="#000000" stroke="#000000" stroke-width="1" x1="89" x2="89" y1="533" y2="538"/>
<line fill="#000000" stroke="#000000" stroke-width="1" x1="89" x2="89" y1="543" y2="548"/>
<line fill="#000000" stroke="#000000" stroke-width="1" x1="89" x2="89" y1="553" y2="557"/>
<rect fill="#ffffff" height="494" stroke="#ffffff" stroke-width="1" width="20" x="79" y="63"/>
<rect fill="none" height="494" stroke="#000000" stroke-width="1" width="20" x="79" y="63"/>
<rect fill="#ffffff" height="50" stroke="#ffffff" stroke-width="1" width="150" x="14" y="14"/>
<rect fill="none" height="50" stroke="#000000" stroke-width="1" width="150" x="14" y="14"/>
<text font-family="Dialog" font-size="12" x="53" y="46">
/Encargado</text>
<text font-family="Dialog" font-size="12" x="52" y="27">
&lt;&lt;Actor&gt;&gt;</text>
<line fill="#000000" stroke="#000000" stroke-width="1" x1="473" x2="473" y1="63" y2="68"/>
<line fill="#000000" stroke="#000000" stroke-width="1" x1="473" x2="473" y1="73" y2="78"/>
<line fill="#000000" stroke="#000000" stroke-width="1" x1="473" x2="473" y1="83" y2="88"/>
<line fill="#000000" stroke="#000000" stroke-width="1" x1="473" x2="473" y1="93" y2="98"/>
<line fill="#000000" stroke="#000000" stroke-width="1" x1="473" x2="473" y1="103" y2="108"/>
<line fill="#000000" stroke="#000000" stroke-width="1" x1="473" x2="473" y1="113" y2="118"/>
<line fill="#000000" stroke="#000000" stroke-width="1" x1="473" x2="473" y1="123" y2="128"/>
<line fill="#000000" stroke="#000000" stroke-width="1" x1="473" x2="473" y1="133" y2="138"/>
<line fill="#000000" stroke="#000000" stroke-width="1" x1="473" x2="473" y1="143" y2="148"/>
<line fill="#000000" stroke="#000000" stroke-width="1" x1="473" x2="473" y1="153" y2="158"/>
<line fill="#000000" stroke="#000000" stroke-width="1" x1="473" x2="473" y1="163" y2="168"/>
<line fill="#000000" stroke="#000000" stroke-width="1" x1="473" x2="473" y1="173" y2="178"/>
<line fill="#000000" stroke="#000000" stroke-width="1" x1="473" x2="473" y1="183" y2="188"/>
<line fill="#000000" stroke="#000000" stroke-width="1" x1="473" x2="473" y1="193" y2="198"/>
<line fill="#000000" stroke="#000000" stroke-width="1" x1="473" x2="473" y1="203" y2="208"/>
<line fill="#000000" stroke="#000000" stroke-width="1" x1="473" x2="473" y1="213" y2="218"/>
<line fill="#000000" stroke="#000000" stroke-width="1" x1="473" x2="473" y1="223" y2="228"/>
<line fill="#000000" stroke="#000000" stroke-width="1" x1="473" x2="473" y1="233" y2="238"/>
<line fill="#000000" stroke="#000000" stroke-width="1" x1="473" x2="473" y1="243" y2="248"/>
<line fill="#000000" stroke="#000000" stroke-width="1" x1="473" x2="473" y1="253" y2="258"/>
<line fill="#000000" stroke="#000000" stroke-width="1" x1="473" x2="473" y1="263" y2="268"/>
<line fill="#000000" stroke="#000000" stroke-width="1" x1="473" x2="473" y1="273" y2="278"/>
<line fill="#000000" stroke="#000000" stroke-width="1" x1="473" x2="473" y1="283" y2="288"/>
<line fill="#000000" stroke="#000000" stroke-width="1" x1="473" x2="473" y1="293" y2="298"/>
<line fill="#000000" stroke="#000000" stroke-width="1" x1="473" x2="473" y1="303" y2="308"/>
<line fill="#000000" stroke="#000000" stroke-width="1" x1="473" x2="473" y1="313" y2="318"/>
<line fill="#000000" stroke="#000000" stroke-width="1" x1="473" x2="473" y1="323" y2="328"/>
<line fill="#000000" stroke="#000000" stroke-width="1" x1="473" x2="473" y1="333" y2="338"/>
<line fill="#000000" stroke="#000000" stroke-width="1" x1="473" x2="473" y1="343" y2="348"/>
<line fill="#000000" stroke="#000000" stroke-width="1" x1="473" x2="473" y1="353" y2="358"/>
<line fill="#000000" stroke="#000000" stroke-width="1" x1="473" x2="473" y1="363" y2="368"/>
<line fill="#000000" stroke="#000000" stroke-width="1" x1="473" x2="473" y1="373" y2="378"/>
<line fill="#000000" stroke="#000000" stroke-width="1" x1="473" x2="473" y1="383" y2="388"/>
<line fill="#000000" stroke="#000000" stroke-width="1" x1="473" x2="473" y1="393" y2="398"/>
<line fill="#000000" stroke="#000000" stroke-width="1" x1="473" x2="473" y1="403" y2="408"/>
<line fill="#000000" stroke="#000000" stroke-width="1" x1="473" x2="473" y1="413" y2="418"/>
<line fill="#000000" stroke="#000000" stroke-width="1" x1="473" x2="473" y1="423" y2="428"/>
<line fill="#000000" stroke="#000000" stroke-width="1" x1="473" x2="473" y1="433" y2="438"/>
<line fill="#000000" stroke="#000000" stroke-width="1" x1="473" x2="473" y1="443" y2="448"/>
<line fill="#000000" stroke="#000000" stroke-width="1" x1="473" x2="473" y1="453" y2="458"/>
<line fill="#000000" stroke="#000000" stroke-width="1" x1="473" x2="473" y1="463" y2="468"/>
<line fill="#000000" stroke="#000000" stroke-width="1" x1="473" x2="473" y1="473" y2="478"/>
<line fill="#000000" stroke="#000000" stroke-width="1" x1="473" x2="473" y1="483" y2="488"/>
<line fill="#000000" stroke="#000000" stroke-width="1" x1="473" x2="473" y1="493" y2="498"/>
<line fill="#000000" stroke="#000000" stroke-width="1" x1="473" x2="473" y1="503" y2="508"/>
<line fill="#000000" stroke="#000000" stroke-width="1" x1="473" x2="473" y1="513" y2="518"/>
<line fill="#000000" stroke="#000000" stroke-width="1" x1="473" x2="473" y1="523" y2="528"/>
<line fill="#000000" stroke="#000000" stroke-width="1" x1="473" x2="473" y1="533" y2="538"/>
<line fill="#000000" stroke="#000000" stroke-width="1" x1="473" x2="473" y1="543" y2="548"/>
<line fill="#000000" stroke="#000000" stroke-width="1" x1="473" x2="473" y1="553" y2="558"/>
<rect fill="#ffffff" height="50" stroke="#ffffff" stroke-width="1" width="20" x="463" y="126"/>
<rect fill="none" height="50" stroke="#000000" stroke-width="1" width="20" x="463" y="126"/>
<rect fill="#ffffff" height="50" stroke="#ffffff" stroke-width="1" width="150" x="398" y="14"/>
<rect fill="none" height="50" stroke="#000000" stroke-width="1" width="150" x="398" y="14"/>
<text font-family="Dialog" font-size="12" x="442" y="46">
/AuthUser</text>
<text font-family="Dialog" font-size="12" x="438" y="27">
&lt;&lt;login&gt;&gt;</text>
<line fill="#000000" stroke="#000000" stroke-width="1" x1="689" x2="689" y1="63" y2="68"/>
<line fill="#000000" stroke="#000000" stroke-width="1" x1="689" x2="689" y1="73" y2="78"/>
<line fill="#000000" stroke="#000000" stroke-width="1" x1="689" x2="689" y1="83" y2="88"/>
<line fill="#000000" stroke="#000000" stroke-width="1" x1="689" x2="689" y1="93" y2="98"/>
<line fill="#000000" stroke="#000000" stroke-width="1" x1="689" x2="689" y1="103" y2="108"/>
<line fill="#000000" stroke="#000000" stroke-width="1" x1="689" x2="689" y1="113" y2="118"/>
<line fill="#000000" stroke="#000000" stroke-width="1" x1="689" x2="689" y1="123" y2="128"/>
<line fill="#000000" stroke="#000000" stroke-width="1" x1="689" x2="689" y1="133" y2="138"/>
<line fill="#000000" stroke="#000000" stroke-width="1" x1="689" x2="689" y1="143" y2="148"/>
<line fill="#000000" stroke="#000000" stroke-width="1" x1="689" x2="689" y1="153" y2="158"/>
<line fill="#000000" stroke="#000000" stroke-width="1" x1="689" x2="689" y1="163" y2="168"/>
<line fill="#000000" stroke="#000000" stroke-width="1" x1="689" x2="689" y1="173" y2="178"/>
<line fill="#000000" stroke="#000000" stroke-width="1" x1="689" x2="689" y1="183" y2="188"/>
<line fill="#000000" stroke="#000000" stroke-width="1" x1="689" x2="689" y1="193" y2="198"/>
<line fill="#000000" stroke="#000000" stroke-width="1" x1="689" x2="689" y1="203" y2="208"/>
<line fill="#000000" stroke="#000000" stroke-width="1" x1="689" x2="689" y1="213" y2="218"/>
<line fill="#000000" stroke="#000000" stroke-width="1" x1="689" x2="689" y1="223" y2="228"/>
<line fill="#000000" stroke="#000000" stroke-width="1" x1="689" x2="689" y1="233" y2="238"/>
<line fill="#000000" stroke="#000000" stroke-width="1" x1="689" x2="689" y1="243" y2="248"/>
<line fill="#000000" stroke="#000000" stroke-width="1" x1="689" x2="689" y1="253" y2="258"/>
<line fill="#000000" stroke="#000000" stroke-width="1" x1="689" x2="689" y1="263" y2="268"/>
<line fill="#000000" stroke="#000000" stroke-width="1" x1="689" x2="689" y1="273" y2="278"/>
<line fill="#000000" stroke="#000000" stroke-width="1" x1="689" x2="689" y1="283" y2="288"/>
<line fill="#000000" stroke="#000000" stroke-width="1" x1="689" x2="689" y1="293" y2="298"/>
<line fill="#000000" stroke="#000000" stroke-width="1" x1="689" x2="689" y1="303" y2="308"/>
<line fill="#000000" stroke="#000000" stroke-width="1" x1="689" x2="689" y1="313" y2="318"/>
<line fill="#000000" stroke="#000000" stroke-width="1" x1="689" x2="689" y1="323" y2="328"/>
<line fill="#000000" stroke="#000000" stroke-width="1" x1="689" x2="689" y1="333" y2="338"/>
<line fill="#000000" stroke="#000000" stroke-width="1" x1="689" x2="689" y1="343" y2="348"/>
<line fill="#000000" stroke="#000000" stroke-width="1" x1="689" x2="689" y1="353" y2="358"/>
<line fill="#000000" stroke="#000000" stroke-width="1" x1="689" x2="689" y1="363" y2="368"/>
<line fill="#000000" stroke="#000000" stroke-width="1" x1="689" x2="689" y1="373" y2="378"/>
<line fill="#000000" stroke="#000000" stroke-width="1" x1="689" x2="689" y1="383" y2="388"/>
<line fill="#000000" stroke="#000000" stroke-width="1" x1="689" x2="689" y1="393" y2="398"/>
<line fill="#000000" stroke="#000000" stroke-width="1" x1="689" x2="689" y1="403" y2="408"/>
<line fill="#000000" stroke="#000000" stroke-width="1" x1="689" x2="689" y1="413" y2="418"/>
<line fill="#000000" stroke="#000000" stroke-width="1" x1="689" x2="689" y1="423" y2="428"/>
<line fill="#000000" stroke="#000000" stroke-width="1" x1="689" x2="689" y1="433" y2="438"/>
<line fill="#000000" stroke="#000000" stroke-width="1" x1="689" x2="689" y1="443" y2="448"/>
<line fill="#000000" stroke="#000000" stroke-width="1" x1="689" x2="689" y1="453" y2="458"/>
<line fill="#000000" stroke="#000000" stroke-width="1" x1="689" x2="689" y1="463" y2="468"/>
<line fill="#000000" stroke="#000000" stroke-width="1" x1="689" x2="689" y1="473" y2="478"/>
<line fill="#000000" stroke="#000000" stroke-width="1" x1="689" x2="689" y1="483" y2="488"/>
<line fill="#000000" stroke="#000000" stroke-width="1" x1="689" x2="689" y1="493" y2="498"/>
<line fill="#000000" stroke="#000000" stroke-width="1" x1="689" x2="689" y1="503" y2="508"/>
<line fill="#000000" stroke="#000000" stroke-width="1" x1="689" x2="689" y1="513" y2="518"/>
<line fill="#000000" stroke="#000000" stroke-width="1" x1="689" x2="689" y1="523" y2="528"/>
<line fill="#000000" stroke="#000000" stroke-width="1" x1="689" x2="689" y1="533" y2="538"/>
<line fill="#000000" stroke="#000000" stroke-width="1" x1="689" x2="689" y1="543" y2="548"/>
<line fill="#000000" stroke="#000000" stroke-width="1" x1="689" x2="689" y1="553" y2="558"/>
<rect fill="#ffffff" height="495" stroke="#ffffff" stroke-width="1" width="20" x="679" y="63"/>
<rect fill="none" height="495" stroke="#000000" stroke-width="1" width="20" x="679" y="63"/>
<rect fill="#ffffff" height="50" stroke="#ffffff" stroke-width="1" width="150" x="614" y="14"/>
<rect fill="none" height="50" stroke="#000000" stroke-width="1" width="150" x="614" y="14"/>
<text font-family="Dialog" font-size="12" x="646" y="46">
/FormReporte</text>
<text font-family="Dialog" font-size="12" x="632" y="27">
&lt;&lt;controlador&gt;&gt;</text>
<line fill="#000000" stroke="#000000" stroke-width="1" x1="889" x2="889" y1="63" y2="68"/>
<line fill="#000000" stroke="#000000" stroke-width="1" x1="889" x2="889" y1="73" y2="78"/>
<line fill="#000000" stroke="#000000" stroke-width="1" x1="889" x2="889" y1="83" y2="88"/>
<line fill="#000000" stroke="#000000" stroke-width="1" x1="889" x2="889" y1="93" y2="98"/>
<line fill="#000000" stroke="#000000" stroke-width="1" x1="889" x2="889" y1="103" y2="108"/>
<line fill="#000000" stroke="#000000" stroke-width="1" x1="889" x2="889" y1="113" y2="118"/>
<line fill="#000000" stroke="#000000" stroke-width="1" x1="889" x2="889" y1="123" y2="128"/>
<line fill="#000000" stroke="#000000" stroke-width="1" x1="889" x2="889" y1="133" y2="138"/>
<line fill="#000000" stroke="#000000" stroke-width="1" x1="889" x2="889" y1="143" y2="148"/>
<line fill="#000000" stroke="#000000" stroke-width="1" x1="889" x2="889" y1="153" y2="158"/>
<line fill="#000000" stroke="#000000" stroke-width="1" x1="889" x2="889" y1="163" y2="168"/>
<line fill="#000000" stroke="#000000" stroke-width="1" x1="889" x2="889" y1="173" y2="178"/>
<line fill="#000000" stroke="#000000" stroke-width="1" x1="889" x2="889" y1="183" y2="188"/>
<line fill="#000000" stroke="#000000" stroke-width="1" x1="889" x2="889" y1="193" y2="198"/>
<line fill="#000000" stroke="#000000" stroke-width="1" x1="889" x2="889" y1="203" y2="208"/>
<line fill="#000000" stroke="#000000" stroke-width="1" x1="889" x2="889" y1="213" y2="218"/>
<line fill="#000000" stroke="#000000" stroke-width="1" x1="889" x2="889" y1="223" y2="228"/>
<line fill="#000000" stroke="#000000" stroke-width="1" x1="889" x2="889" y1="233" y2="238"/>
<line fill="#000000" stroke="#000000" stroke-width="1" x1="889" x2="889" y1="243" y2="248"/>
<line fill="#000000" stroke="#000000" stroke-width="1" x1="889" x2="889" y1="253" y2="258"/>
<line fill="#000000" stroke="#000000" stroke-width="1" x1="889" x2="889" y1="263" y2="268"/>
<line fill="#000000" stroke="#000000" stroke-width="1" x1="889" x2="889" y1="273" y2="278"/>
<line fill="#000000" stroke="#000000" stroke-width="1" x1="889" x2="889" y1="283" y2="288"/>
<line fill="#000000" stroke="#000000" stroke-width="1" x1="889" x2="889" y1="293" y2="298"/>
<line fill="#000000" stroke="#000000" stroke-width="1" x1="889" x2="889" y1="303" y2="308"/>
<line fill="#000000" stroke="#000000" stroke-width="1" x1="889" x2="889" y1="313" y2="318"/>
<line fill="#000000" stroke="#000000" stroke-width="1" x1="889" x2="889" y1="323" y2="328"/>
<line fill="#000000" stroke="#000000" stroke-width="1" x1="889" x2="889" y1="333" y2="338"/>
<line fill="#000000" stroke="#000000" stroke-width="1" x1="889" x2="889" y1="343" y2="348"/>
<line fill="#000000" stroke="#000000" stroke-width="1" x1="889" x2="889" y1="353" y2="358"/>
<line fill="#000000" stroke="#000000" stroke-width="1" x1="889" x2="889" y1="363" y2="368"/>
<line fill="#000000" stroke="#000000" stroke-width="1" x1="889" x2="889" y1="373" y2="378"/>
<line fill="#000000" stroke="#000000" stroke-width="1" x1="889" x2="889" y1="383" y2="388"/>
<line fill="#000000" stroke="#000000" stroke-width="1" x1="889" x2="889" y1="393" y2="398"/>
<line fill="#000000" stroke="#000000" stroke-width="1" x1="889" x2="889" y1="403" y2="408"/>
<line fill="#000000" stroke="#000000" stroke-width="1" x1="889" x2="889" y1="413" y2="418"/>
<line fill="#000000" stroke="#000000" stroke-width="1" x1="889" x2="889" y1="423" y2="428"/>
<line fill="#000000" stroke="#000000" stroke-width="1" x1="889" x2="889" y1="433" y2="438"/>
<line fill="#000000" stroke="#000000" stroke-width="1" x1="889" x2="889" y1="443" y2="448"/>
<line fill="#000000" stroke="#000000" stroke-width="1" x1="889" x2="889" y1="453" y2="458"/>
<line fill="#000000" stroke="#000000" stroke-width="1" x1="889" x2="889" y1="463" y2="468"/>
<line fill="#000000" stroke="#000000" stroke-width="1" x1="889" x2="889" y1="473" y2="478"/>
<line fill="#000000" stroke="#000000" stroke-width="1" x1="889" x2="889" y1="483" y2="488"/>
<line fill="#000000" stroke="#000000" stroke-width="1" x1="889" x2="889" y1="493" y2="498"/>
<line fill="#000000" stroke="#000000" stroke-width="1" x1="889" x2="889" y1="503" y2="508"/>
<line fill="#000000" stroke="#000000" stroke-width="1" x1="889" x2="889" y1="513" y2="518"/>
<line fill="#000000" stroke="#000000" stroke-width="1" x1="889" x2="889" y1="523" y2="528"/>
<line fill="#000000" stroke="#000000" stroke-width="1" x1="889" x2="889" y1="533" y2="538"/>
<line fill="#000000" stroke="#000000" stroke-width="1" x1="889" x2="889" y1="543" y2="548"/>
<line fill="#000000" stroke="#000000" stroke-width="1" x1="889" x2="889" y1="553" y2="558"/>
<rect fill="#ffffff" height="50" stroke="#ffffff" stroke-width="1" width="20" x="879" y="262"/>
<rect fill="none" height="50" stroke="#000000" stroke-width="1" width="20" x="879" y="262"/>
<rect fill="#ffffff" height="50" stroke="#ffffff" stroke-width="1" width="150" x="814" y="14"/>
<rect fill="none" height="50" stroke="#000000" stroke-width="1" width="150" x="814" y="14"/>
<text font-family="Dialog" font-size="12" x="845" y="27">
/RegVehiculos</text>
<line fill="#000000" stroke="#000000" stroke-width="1" x1="281" x2="281" y1="63" y2="68"/>
<line fill="#000000" stroke="#000000" stroke-width="1" x1="281" x2="281" y1="73" y2="78"/>
<line fill="#000000" stroke="#000000" stroke-width="1" x1="281" x2="281" y1="83" y2="88"/>
<line fill="#000000" stroke="#000000" stroke-width="1" x1="281" x2="281" y1="93" y2="98"/>
<line fill="#000000" stroke="#000000" stroke-width="1" x1="281" x2="281" y1="103" y2="108"/>
<line fill="#000000" stroke="#000000" stroke-width="1" x1="281" x2="281" y1="113" y2="118"/>
<line fill="#000000" stroke="#000000" stroke-width="1" x1="281" x2="281" y1="123" y2="128"/>
<line fill="#000000" stroke="#000000" stroke-width="1" x1="281" x2="281" y1="133" y2="138"/>
<line fill="#000000" stroke="#000000" stroke-width="1" x1="281" x2="281" y1="143" y2="148"/>
<line fill="#000000" stroke="#000000" stroke-width="1" x1="281" x2="281" y1="153" y2="158"/>
<line fill="#000000" stroke="#000000" stroke-width="1" x1="281" x2="281" y1="163" y2="168"/>
<line fill="#000000" stroke="#000000" stroke-width="1" x1="281" x2="281" y1="173" y2="178"/>
<line fill="#000000" stroke="#000000" stroke-width="1" x1="281" x2="281" y1="183" y2="188"/>
<line fill="#000000" stroke="#000000" stroke-width="1" x1="281" x2="281" y1="193" y2="198"/>
<line fill="#000000" stroke="#000000" stroke-width="1" x1="281" x2="281" y1="203" y2="208"/>
<line fill="#000000" stroke="#000000" stroke-width="1" x1="281" x2="281" y1="213" y2="218"/>
<line fill="#000000" stroke="#000000" stroke-width="1" x1="281" x2="281" y1="223" y2="228"/>
<line fill="#000000" stroke="#000000" stroke-width="1" x1="281" x2="281" y1="233" y2="238"/>
<line fill="#000000" stroke="#000000" stroke-width="1" x1="281" x2="281" y1="243" y2="248"/>
<line fill="#000000" stroke="#000000" stroke-width="1" x1="281" x2="281" y1="253" y2="258"/>
<line fill="#000000" stroke="#000000" stroke-width="1" x1="281" x2="281" y1="263" y2="268"/>
<line fill="#000000" stroke="#000000" stroke-width="1" x1="281" x2="281" y1="273" y2="278"/>
<line fill="#000000" stroke="#000000" stroke-width="1" x1="281" x2="281" y1="283" y2="288"/>
<line fill="#000000" stroke="#000000" stroke-width="1" x1="281" x2="281" y1="293" y2="298"/>
<line fill="#000000" stroke="#000000" stroke-width="1" x1="281" x2="281" y1="303" y2="308"/>
<line fill="#000000" stroke="#000000" stroke-width="1" x1="281" x2="281" y1="313" y2="318"/>
<line fill="#000000" stroke="#000000" stroke-width="1" x1="281" x2="281" y1="323" y2="328"/>
<line fill="#000000" stroke="#000000" stroke-width="1" x1="281" x2="281" y1="333" y2="338"/>
<line fill="#000000" stroke="#000000" stroke-width="1" x1="281" x2="281" y1="343" y2="348"/>
<line fill="#000000" stroke="#000000" stroke-width="1" x1="281" x2="281" y1="353" y2="358"/>
<line fill="#000000" stroke="#000000" stroke-width="1" x1="281" x2="281" y1="363" y2="368"/>
<line fill="#000000" stroke="#000000" stroke-width="1" x1="281" x2="281" y1="373" y2="378"/>
<line fill="#000000" stroke="#000000" stroke-width="1" x1="281" x2="281" y1="383" y2="388"/>
<line fill="#000000" stroke="#000000" stroke-width="1" x1="281" x2="281" y1="393" y2="398"/>
<line fill="#000000" stroke="#000000" stroke-width="1" x1="281" x2="281" y1="403" y2="408"/>
<line fill="#000000" stroke="#000000" stroke-width="1" x1="281" x2="281" y1="413" y2="418"/>
<line fill="#000000" stroke="#000000" stroke-width="1" x1="281" x2="281" y1="423" y2="428"/>
<line fill="#000000" stroke="#000000" stroke-width="1" x1="281" x2="281" y1="433" y2="438"/>
<line fill="#000000" stroke="#000000" stroke-width="1" x1="281" x2="281" y1="443" y2="448"/>
<line fill="#000000" stroke="#000000" stroke-width="1" x1="281" x2="281" y1="453" y2="458"/>
<line fill="#000000" stroke="#000000" stroke-width="1" x1="281" x2="281" y1="463" y2="468"/>
<line fill="#000000" stroke="#000000" stroke-width="1" x1="281" x2="281" y1="473" y2="478"/>
<line fill="#000000" stroke="#000000" stroke-width="1" x1="281" x2="281" y1="483" y2="488"/>
<line fill="#000000" stroke="#000000" stroke-width="1" x1="281" x2="281" y1="493" y2="498"/>
<line fill="#000000" stroke="#000000" stroke-width="1" x1="281" x2="281" y1="503" y2="508"/>
<line fill="#000000" stroke="#000000" stroke-width="1" x1="281" x2="281" y1="513" y2="518"/>
<line fill="#000000" stroke="#000000" stroke-width="1" x1="281" x2="281" y1="523" y2="528"/>
<line fill="#000000" stroke="#000000" stroke-width="1" x1="281" x2="281" y1="533" y2="538"/>
<line fill="#000000" stroke="#000000" stroke-width="1" x1="281" x2="281" y1="543" y2="548"/>
<line fill="#000000" stroke="#000000" stroke-width="1" x1="281" x2="281" y1="553" y2="556"/>
<rect fill="#ffffff" height="493" stroke="#ffffff" stroke-width="1" width="20" x="271" y="63"/>
<rect fill="none" height="493" stroke="#000000" stroke-width="1" width="20" x="271" y="63"/>
<rect fill="#ffffff" height="50" stroke="#ffffff" stroke-width="1" width="150" x="206" y="14"/>
<rect fill="none" height="50" stroke="#000000" stroke-width="1" width="150" x="206" y="14"/>
<text font-family="Dialog" font-size="12" x="242" y="46">
/ReporteVeh</text>
<text font-family="Dialog" font-size="12" x="224" y="27">
&lt;&lt;controlador&gt;&gt;</text>
<line fill="#000000" stroke="#000000" stroke-width="1" x1="99" x2="104" y1="94" y2="94"/>
<line fill="#000000" stroke="#000000" stroke-width="1" x1="109" x2="114" y1="94" y2="94"/>
<line fill="#000000" stroke="#000000" stroke-width="1" x1="119" x2="124" y1="94" y2="94"/>
<line fill="#000000" stroke="#000000" stroke-width="1" x1="129" x2="134" y1="94" y2="94"/>
<line fill="#000000" stroke="#000000" stroke-width="1" x1="139" x2="144" y1="94" y2="94"/>
<line fill="#000000" stroke="#000000" stroke-width="1" x1="149" x2="154" y1="94" y2="94"/>
<line fill="#000000" stroke="#000000" stroke-width="1" x1="159" x2="164" y1="94" y2="94"/>
<line fill="#000000" stroke="#000000" stroke-width="1" x1="169" x2="174" y1="94" y2="94"/>
<line fill="#000000" stroke="#000000" stroke-width="1" x1="179" x2="184" y1="94" y2="94"/>
<line fill="#000000" stroke="#000000" stroke-width="1" x1="189" x2="194" y1="94" y2="94"/>
<line fill="#000000" stroke="#000000" stroke-width="1" x1="199" x2="204" y1="94" y2="94"/>
<line fill="#000000" stroke="#000000" stroke-width="1" x1="209" x2="214" y1="94" y2="94"/>
<line fill="#000000" stroke="#000000" stroke-width="1" x1="219" x2="224" y1="94" y2="94"/>
<line fill="#000000" stroke="#000000" stroke-width="1" x1="229" x2="234" y1="94" y2="94"/>
<line fill="#000000" stroke="#000000" stroke-width="1" x1="239" x2="244" y1="94" y2="94"/>
<line fill="#000000" stroke="#000000" stroke-width="1" x1="249" x2="254" y1="94" y2="94"/>
<line fill="#000000" stroke="#000000" stroke-width="1" x1="259" x2="264" y1="94" y2="94"/>
<line fill="#000000" stroke="#000000" stroke-width="1" x1="269" x2="271" y1="94" y2="94"/>
<line fill="#000000" stroke="#000000" stroke-width="1" x1="259" x2="271" y1="101" y2="94"/>
<line fill="#000000" stroke="#000000" stroke-width="1" x1="259" x2="271" y1="87" y2="94"/>
<text font-family="Dialog" font-size="12" x="117" y="89">
quiere sacar reporte</text>
<polyline fill="none" points="99,126 463,126" stroke="#000000" stroke-width="1"/>
<polygon fill="#000000" points="463,126 451,133 451,119" stroke="#000000" stroke-width="1"/>
<polygon fill="none" points="463,126 451,133 451,119" stroke="#000000" stroke-width="1"/>
<text font-family="Dialog" font-size="12" x="311" y="114">
Iniciar sesion</text>
<polyline fill="none" points="463,176 99,176" stroke="#000000" stroke-width="1"/>
<line fill="#000000" stroke="#000000" stroke-width="1" x1="111" x2="99" y1="169" y2="176"/>
<line fill="#000000" stroke="#000000" stroke-width="1" x1="111" x2="99" y1="183" y2="176"/>
<text font-family="Dialog" font-size="12" x="318" y="162">
Usuario</text>
<line fill="#000000" stroke="#000000" stroke-width="1" x1="99" x2="104" y1="222" y2="222"/>
<line fill="#000000" stroke="#000000" stroke-width="1" x1="109" x2="114" y1="222" y2="222"/>
<line fill="#000000" stroke="#000000" stroke-width="1" x1="119" x2="124" y1="222" y2="222"/>
<line fill="#000000" stroke="#000000" stroke-width="1" x1="129" x2="134" y1="222" y2="222"/>
<line fill="#000000" stroke="#000000" stroke-width="1" x1="139" x2="144" y1="222" y2="222"/>
<line fill="#000000" stroke="#000000" stroke-width="1" x1="149" x2="154" y1="222" y2="222"/>
<line fill="#000000" stroke="#000000" stroke-width="1" x1="159" x2="164" y1="222" y2="222"/>
<line fill="#000000" stroke="#000000" stroke-width="1" x1="169" x2="174" y1="222" y2="222"/>
<line fill="#000000" stroke="#000000" stroke-width="1" x1="179" x2="184" y1="222" y2="222"/>
<line fill="#000000" stroke="#000000" stroke-width="1" x1="189" x2="194" y1="222" y2="222"/>
<line fill="#000000" stroke="#000000" stroke-width="1" x1="199" x2="204" y1="222" y2="222"/>
<line fill="#000000" stroke="#000000" stroke-width="1" x1="209" x2="214" y1="222" y2="222"/>
<line fill="#000000" stroke="#000000" stroke-width="1" x1="219" x2="224" y1="222" y2="222"/>
<line fill="#000000" stroke="#000000" stroke-width="1" x1="229" x2="234" y1="222" y2="222"/>
<line fill="#000000" stroke="#000000" stroke-width="1" x1="239" x2="244" y1="222" y2="222"/>
<line fill="#000000" stroke="#000000" stroke-width="1" x1="249" x2="254" y1="222" y2="222"/>
<line fill="#000000" stroke="#000000" stroke-width="1" x1="259" x2="264" y1="222" y2="222"/>
<line fill="#000000" stroke="#000000" stroke-width="1" x1="269" x2="274" y1="222" y2="222"/>
<line fill="#000000" stroke="#000000" stroke-width="1" x1="279" x2="284" y1="222" y2="222"/>
<line fill="#000000" stroke="#000000" stroke-width="1" x1="289" x2="294" y1="222" y2="222"/>
<line fill="#000000" stroke="#000000" stroke-width="1" x1="299" x2="304" y1="222" y2="222"/>
<line fill="#000000" stroke="#000000" stroke-width="1" x1="309" x2="314" y1="222" y2="222"/>
<line fill="#000000" stroke="#000000" stroke-width="1" x1="319" x2="324" y1="222" y2="222"/>
<line fill="#000000" stroke="#000000" stroke-width="1" x1="329" x2="334" y1="222" y2="222"/>
<line fill="#000000" stroke="#000000" stroke-width="1" x1="339" x2="344" y1="222" y2="222"/>
<line fill="#000000" stroke="#000000" stroke-width="1" x1="349" x2="354" y1="222" y2="222"/>
<line fill="#000000" stroke="#000000" stroke-width="1" x1="359" x2="364" y1="222" y2="222"/>
<line fill="#000000" stroke="#000000" stroke-width="1" x1="369" x2="374" y1="222" y2="222"/>
<line fill="#000000" stroke="#000000" stroke-width="1" x1="379" x2="384" y1="222" y2="222"/>
<line fill="#000000" stroke="#000000" stroke-width="1" x1="389" x2="394" y1="222" y2="222"/>
<line fill="#000000" stroke="#000000" stroke-width="1" x1="399" x2="404" y1="222" y2="222"/>
<line fill="#000000" stroke="#000000" stroke-width="1" x1="409" x2="414" y1="222" y2="222"/>
<line fill="#000000" stroke="#000000" stroke-width="1" x1="419" x2="424" y1="222" y2="222"/>
<line fill="#000000" stroke="#000000" stroke-width="1" x1="429" x2="434" y1="222" y2="222"/>
<line fill="#000000" stroke="#000000" stroke-width="1" x1="439" x2="444" y1="222" y2="222"/>
<line fill="#000000" stroke="#000000" stroke-width="1" x1="449" x2="454" y1="222" y2="222"/>
<line fill="#000000" stroke="#000000" stroke-width="1" x1="459" x2="464" y1="222" y2="222"/>
<line fill="#000000" stroke="#000000" stroke-width="1" x1="469" x2="474" y1="222" y2="222"/>
<line fill="#000000" stroke="#000000" stroke-width="1" x1="479" x2="484" y1="222" y2="222"/>
<line fill="#000000" stroke="#000000" stroke-width="1" x1="489" x2="494" y1="222" y2="222"/>
<line fill="#000000" stroke="#000000" stroke-width="1" x1="499" x2="504" y1="222" y2="222"/>
<line fill="#000000" stroke="#000000" stroke-width="1" x1="509" x2="514" y1="222" y2="222"/>
<line fill="#000000" stroke="#000000" stroke-width="1" x1="519" x2="524" y1="222" y2="222"/>
<line fill="#000000" stroke="#000000" stroke-width="1" x1="529" x2="534" y1="222" y2="222"/>
<line fill="#000000" stroke="#000000" stroke-width="1" x1="539" x2="544" y1="222" y2="222"/>
<line fill="#000000" stroke="#000000" stroke-width="1" x1="549" x2="554" y1="222" y2="222"/>
<line fill="#000000" stroke="#000000" stroke-width="1" x1="559" x2="564" y1="222" y2="222"/>
<line fill="#000000" stroke="#000000" stroke-width="1" x1="569" x2="574" y1="222" y2="222"/>
<line fill="#000000" stroke="#000000" stroke-width="1" x1="579" x2="584" y1="222" y2="222"/>
<line fill="#000000" stroke="#000000" stroke-width="1" x1="589" x2="594" y1="222" y2="222"/>
<line fill="#000000" stroke="#000000" stroke-width="1" x1="599" x2="604" y1="222" y2="222"/>
<line fill="#000000" stroke="#000000" stroke-width="1" x1="609" x2="614" y1="222" y2="222"/>
<line fill="#000000" stroke="#000000" stroke-width="1" x1="619" x2="624" y1="222" y2="222"/>
<line fill="#000000" stroke="#000000" stroke-width="1" x1="629" x2="634" y1="222" y2="222"/>
<line fill="#000000" stroke="#000000" stroke-width="1" x1="639" x2="644" y1="222" y2="222"/>
<line fill="#000000" stroke="#000000" stroke-width="1" x1="649" x2="654" y1="222" y2="222"/>
<line fill="#000000" stroke="#000000" stroke-width="1" x1="659" x2="664" y1="222" y2="222"/>
<line fill="#000000" stroke="#000000" stroke-width="1" x1="669" x2="674" y1="222" y2="222"/>
<line fill="#000000" stroke="#000000" stroke-width="1" x1="667" x2="679" y1="229" y2="222"/>
<line fill="#000000" stroke="#000000" stroke-width="1" x1="667" x2="679" y1="215" y2="222"/>
<text font-family="Dialog" font-size="12" x="339" y="217">
Ingresa los datos para el reporte</text>
<polyline fill="none" points="291,262 879,262" stroke="#000000" stroke-width="1"/>
<polygon fill="#000000" points="879,262 867,269 867,255" stroke="#000000" stroke-width="1"/>
<polygon fill="none" points="879,262 867,269 867,255" stroke="#000000" stroke-width="1"/>
<text font-family="Dialog" font-size="12" x="539" y="257">
getReport(....)</text>
<polyline fill="none" points="879,312 291,312" stroke="#000000" stroke-width="1"/>
<line fill="#000000" stroke="#000000" stroke-width="1" x1="303" x2="291" y1="305" y2="312"/>
<line fill="#000000" stroke="#000000" stroke-width="1" x1="303" x2="291" y1="319" y2="312"/>
<text font-family="Dialog" font-size="12" x="539" y="307">
Reporte de vehiculos</text>
</svg>
