<?xml version="1.0" encoding="utf-8" ?>
<!DOCTYPE svg PUBLIC "-//W3C//DTD SVG 1.1//EN" "http://www.w3.org/Graphics/SVG/1.1/DTD/svg11.dtd">
<svg height="548" version="1.1" width="1018" xmlns="http://www.w3.org/2000/svg">
<line fill="#000000" stroke="#000000" stroke-width="1" x1="89" x2="89" y1="63" y2="68"/>
<line fill="#000000" stroke="#000000" stroke-width="1" x1="89" x2="89" y1="73" y2="78"/>
<line fill="#000000" stroke="#000000" stroke-width="1" x1="89" x2="89" y1="83" y2="88"/>
<line fill="#000000" stroke="#000000" stroke-width="1" x1="89" x2="89" y1="93" y2="98"/>
<line fill="#000000" stroke="#000000" stroke-width="1" x1="89" x2="89" y1="103" y2="108"/>
<line fill="#000000" stroke="#000000" stroke-width="1" x1="89" x2="89" y1="113" y2="118"/>
<line fill="#000000" stroke="#000000" stroke-width="1" x1="89" x2="89" y1="123" y2="128"/>
<line fill="#000000" stroke="#000000" stroke-width="1" x1="89" x2="89" y1="133" y2="138"/>
<line fill="#000000" stroke="#000000" stroke-width="1" x1="89" x2="89" y1="143" y2="148"/>
<line fill="#000000" stroke="#000000" stroke-width="1" x1="89" x2="89" y1="153" y2="158"/>
<line fill="#000000" stroke="#000000" stroke-width="1" x1="89" x2="89" y1="163" y2="168"/>
<line fill="#000000" stroke="#000000" stroke-width="1" x1="89" x2="89" y1="173" y2="178"/>
<line fill="#000000" stroke="#000000" stroke-width="1" x1="89" x2="89" y1="183" y2="188"/>
<line fill="#000000" stroke="#000000" stroke-width="1" x1="89" x2="89" y1="193" y2="198"/>
<line fill="#000000" stroke="#000000" stroke-width="1" x1="89" x2="89" y1="203" y2="208"/>
<line fill="#000000" stroke="#000000" stroke-width="1" x1="89" x2="89" y1="213" y2="218"/>
<line fill="#000000" stroke="#000000" stroke-width="1" x1="89" x2="89" y1="223" y2="228"/>
<line fill="#000000" stroke="#000000" stroke-width="1" x1="89" x2="89" y1="233" y2="238"/>
<line fill="#000000" stroke="#000000" stroke-width="1" x1="89" x2="89" y1="243" y2="248"/>
<line fill="#000000" stroke="#000000" stroke-width="1" x1="89" x2="89" y1="253" y2="258"/>
<line fill="#000000" stroke="#000000" stroke-width="1" x1="89" x2="89" y1="263" y2="268"/>
<line fill="#000000" stroke="#000000" stroke-width="1" x1="89" x2="89" y1="273" y2="278"/>
<line fill="#000000" stroke="#000000" stroke-width="1" x1="89" x2="89" y1="283" y2="288"/>
<line fill="#000000" stroke="#000000" stroke-width="1" x1="89" x2="89" y1="293" y2="298"/>
<line fill="#000000" stroke="#000000" stroke-width="1" x1="89" x2="89" y1="303" y2="308"/>
<line fill="#000000" stroke="#000000" stroke-width="1" x1="89" x2="89" y1="313" y2="318"/>
<line fill="#000000" stroke="#000000" stroke-width="1" x1="89" x2="89" y1="323" y2="328"/>
<line fill="#000000" stroke="#000000" stroke-width="1" x1="89" x2="89" y1="333" y2="338"/>
<line fill="#000000" stroke="#000000" stroke-width="1" x1="89" x2="89" y1="343" y2="348"/>
<line fill="#000000" stroke="#000000" stroke-width="1" x1="89" x2="89" y1="353" y2="358"/>
<line fill="#000000" stroke="#000000" stroke-width="1" x1="89" x2="89" y1="363" y2="368"/>
<line fill="#000000" stroke="#000000" stroke-width="1" x1="89" x2="89" y1="373" y2="378"/>
<line fill="#000000" stroke="#000000" stroke-width="1" x1="89" x2="89" y1="383" y2="388"/>
<line fill="#000000" stroke="#000000" stroke-width="1" x1="89" x2="89" y1="393" y2="398"/>
<line fill="#000000" stroke="#000000" stroke-width="1" x1="89" x2="89" y1="403" y2="408"/>
<line fill="#000000" stroke="#000000" stroke-width="1" x1="89" x2="89" y1="413" y2="418"/>
<line fill="#000000" stroke="#000000" stroke-width="1" x1="89" x2="89" y1="423" y2="428"/>
<line fill="#000000" stroke="#000000" stroke-width="1" x1="89" x2="89" y1="433" y2="438"/>
<line fill="#000000" stroke="#000000" stroke-width="1" x1="89" x2="89" y1="443" y2="448"/>
<line fill="#000000" stroke="#000000" stroke-width="1" x1="89" x2="89" y1="453" y2="458"/>
<line fill="#000000" stroke="#000000" stroke-width="1" x1="89" x2="89" y1="463" y2="468"/>
<line fill="#000000" stroke="#000000" stroke-width="1" x1="89" x2="89" y1="473" y2="478"/>
<line fill="#000000" stroke="#000000" stroke-width="1" x1="89" x2="89" y1="483" y2="488"/>
<line fill="#000000" stroke="#000000" stroke-width="1" x1="89" x2="89" y1="493" y2="498"/>
<line fill="#000000" stroke="#000000" stroke-width="1" x1="89" x2="89" y1="503" y2="508"/>
<line fill="#000000" stroke="#000000" stroke-width="1" x1="89" x2="89" y1="513" y2="518"/>
<line fill="#000000" stroke="#000000" stroke-width="1" x1="89" x2="89" y1="523" y2="528"/>
<rect fill="#ffffff" height="470" stroke="#ffffff" stroke-width="1" width="20" x="79" y="63"/>
<rect fill="none" height="470" stroke="#000000" stroke-width="1" width="20" x="79" y="63"/>
<rect fill="#ffffff" height="50" stroke="#ffffff" stroke-width="1" width="150" x="14" y="14"/>
<rect fill="none" height="50" stroke="#000000" stroke-width="1" width="150" x="14" y="14"/>
<text font-family="Dialog" font-size="12" x="62" y="46">
/Guardia</text>
<text font-family="Dialog" font-size="12" x="52" y="27">
&lt;&lt;Actor&gt;&gt;</text>
<line fill="#000000" stroke="#000000" stroke-width="1" x1="310" x2="310" y1="63" y2="68"/>
<line fill="#000000" stroke="#000000" stroke-width="1" x1="310" x2="310" y1="73" y2="78"/>
<line fill="#000000" stroke="#000000" stroke-width="1" x1="310" x2="310" y1="83" y2="88"/>
<line fill="#000000" stroke="#000000" stroke-width="1" x1="310" x2="310" y1="93" y2="98"/>
<line fill="#000000" stroke="#000000" stroke-width="1" x1="310" x2="310" y1="103" y2="108"/>
<line fill="#000000" stroke="#000000" stroke-width="1" x1="310" x2="310" y1="113" y2="118"/>
<line fill="#000000" stroke="#000000" stroke-width="1" x1="310" x2="310" y1="123" y2="128"/>
<line fill="#000000" stroke="#000000" stroke-width="1" x1="310" x2="310" y1="133" y2="138"/>
<line fill="#000000" stroke="#000000" stroke-width="1" x1="310" x2="310" y1="143" y2="148"/>
<line fill="#000000" stroke="#000000" stroke-width="1" x1="310" x2="310" y1="153" y2="158"/>
<line fill="#000000" stroke="#000000" stroke-width="1" x1="310" x2="310" y1="163" y2="168"/>
<line fill="#000000" stroke="#000000" stroke-width="1" x1="310" x2="310" y1="173" y2="178"/>
<line fill="#000000" stroke="#000000" stroke-width="1" x1="310" x2="310" y1="183" y2="188"/>
<line fill="#000000" stroke="#000000" stroke-width="1" x1="310" x2="310" y1="193" y2="198"/>
<line fill="#000000" stroke="#000000" stroke-width="1" x1="310" x2="310" y1="203" y2="208"/>
<line fill="#000000" stroke="#000000" stroke-width="1" x1="310" x2="310" y1="213" y2="218"/>
<line fill="#000000" stroke="#000000" stroke-width="1" x1="310" x2="310" y1="223" y2="228"/>
<line fill="#000000" stroke="#000000" stroke-width="1" x1="310" x2="310" y1="233" y2="238"/>
<line fill="#000000" stroke="#000000" stroke-width="1" x1="310" x2="310" y1="243" y2="248"/>
<line fill="#000000" stroke="#000000" stroke-width="1" x1="310" x2="310" y1="253" y2="258"/>
<line fill="#000000" stroke="#000000" stroke-width="1" x1="310" x2="310" y1="263" y2="268"/>
<line fill="#000000" stroke="#000000" stroke-width="1" x1="310" x2="310" y1="273" y2="278"/>
<line fill="#000000" stroke="#000000" stroke-width="1" x1="310" x2="310" y1="283" y2="288"/>
<line fill="#000000" stroke="#000000" stroke-width="1" x1="310" x2="310" y1="293" y2="298"/>
<line fill="#000000" stroke="#000000" stroke-width="1" x1="310" x2="310" y1="303" y2="308"/>
<line fill="#000000" stroke="#000000" stroke-width="1" x1="310" x2="310" y1="313" y2="318"/>
<line fill="#000000" stroke="#000000" stroke-width="1" x1="310" x2="310" y1="323" y2="328"/>
<line fill="#000000" stroke="#000000" stroke-width="1" x1="310" x2="310" y1="333" y2="338"/>
<line fill="#000000" stroke="#000000" stroke-width="1" x1="310" x2="310" y1="343" y2="348"/>
<line fill="#000000" stroke="#000000" stroke-width="1" x1="310" x2="310" y1="353" y2="358"/>
<line fill="#000000" stroke="#000000" stroke-width="1" x1="310" x2="310" y1="363" y2="368"/>
<line fill="#000000" stroke="#000000" stroke-width="1" x1="310" x2="310" y1="373" y2="378"/>
<line fill="#000000" stroke="#000000" stroke-width="1" x1="310" x2="310" y1="383" y2="388"/>
<line fill="#000000" stroke="#000000" stroke-width="1" x1="310" x2="310" y1="393" y2="398"/>
<line fill="#000000" stroke="#000000" stroke-width="1" x1="310" x2="310" y1="403" y2="408"/>
<line fill="#000000" stroke="#000000" stroke-width="1" x1="310" x2="310" y1="413" y2="418"/>
<line fill="#000000" stroke="#000000" stroke-width="1" x1="310" x2="310" y1="423" y2="428"/>
<line fill="#000000" stroke="#000000" stroke-width="1" x1="310" x2="310" y1="433" y2="438"/>
<line fill="#000000" stroke="#000000" stroke-width="1" x1="310" x2="310" y1="443" y2="448"/>
<line fill="#000000" stroke="#000000" stroke-width="1" x1="310" x2="310" y1="453" y2="458"/>
<line fill="#000000" stroke="#000000" stroke-width="1" x1="310" x2="310" y1="463" y2="468"/>
<line fill="#000000" stroke="#000000" stroke-width="1" x1="310" x2="310" y1="473" y2="478"/>
<line fill="#000000" stroke="#000000" stroke-width="1" x1="310" x2="310" y1="483" y2="488"/>
<line fill="#000000" stroke="#000000" stroke-width="1" x1="310" x2="310" y1="493" y2="498"/>
<line fill="#000000" stroke="#000000" stroke-width="1" x1="310" x2="310" y1="503" y2="508"/>
<line fill="#000000" stroke="#000000" stroke-width="1" x1="310" x2="310" y1="513" y2="518"/>
<line fill="#000000" stroke="#000000" stroke-width="1" x1="310" x2="310" y1="523" y2="525"/>
<rect fill="#ffffff" height="462" stroke="#ffffff" stroke-width="1" width="20" x="300" y="63"/>
<rect fill="none" height="462" stroke="#000000" stroke-width="1" width="20" x="300" y="63"/>
<rect fill="#ffffff" height="50" stroke="#ffffff" stroke-width="1" width="192" x="214" y="14"/>
<rect fill="none" height="50" stroke="#000000" stroke-width="1" width="192" x="214" y="14"/>
<text font-family="Dialog" font-size="12" x="218" y="46">
/:FormularioRegistrarVehiculo</text>
<text font-family="Dialog" font-size="12" x="265" y="27">
&lt;&lt;process&gt;&gt;</text>
<line fill="#000000" stroke="#000000" stroke-width="1" x1="521" x2="521" y1="63" y2="68"/>
<line fill="#000000" stroke="#000000" stroke-width="1" x1="521" x2="521" y1="73" y2="78"/>
<line fill="#000000" stroke="#000000" stroke-width="1" x1="521" x2="521" y1="83" y2="88"/>
<line fill="#000000" stroke="#000000" stroke-width="1" x1="521" x2="521" y1="93" y2="98"/>
<line fill="#000000" stroke="#000000" stroke-width="1" x1="521" x2="521" y1="103" y2="108"/>
<line fill="#000000" stroke="#000000" stroke-width="1" x1="521" x2="521" y1="113" y2="118"/>
<line fill="#000000" stroke="#000000" stroke-width="1" x1="521" x2="521" y1="123" y2="128"/>
<line fill="#000000" stroke="#000000" stroke-width="1" x1="521" x2="521" y1="133" y2="138"/>
<line fill="#000000" stroke="#000000" stroke-width="1" x1="521" x2="521" y1="143" y2="148"/>
<line fill="#000000" stroke="#000000" stroke-width="1" x1="521" x2="521" y1="153" y2="158"/>
<line fill="#000000" stroke="#000000" stroke-width="1" x1="521" x2="521" y1="163" y2="168"/>
<line fill="#000000" stroke="#000000" stroke-width="1" x1="521" x2="521" y1="173" y2="178"/>
<line fill="#000000" stroke="#000000" stroke-width="1" x1="521" x2="521" y1="183" y2="188"/>
<line fill="#000000" stroke="#000000" stroke-width="1" x1="521" x2="521" y1="193" y2="198"/>
<line fill="#000000" stroke="#000000" stroke-width="1" x1="521" x2="521" y1="203" y2="208"/>
<line fill="#000000" stroke="#000000" stroke-width="1" x1="521" x2="521" y1="213" y2="218"/>
<line fill="#000000" stroke="#000000" stroke-width="1" x1="521" x2="521" y1="223" y2="228"/>
<line fill="#000000" stroke="#000000" stroke-width="1" x1="521" x2="521" y1="233" y2="238"/>
<line fill="#000000" stroke="#000000" stroke-width="1" x1="521" x2="521" y1="243" y2="248"/>
<line fill="#000000" stroke="#000000" stroke-width="1" x1="521" x2="521" y1="253" y2="258"/>
<line fill="#000000" stroke="#000000" stroke-width="1" x1="521" x2="521" y1="263" y2="268"/>
<line fill="#000000" stroke="#000000" stroke-width="1" x1="521" x2="521" y1="273" y2="278"/>
<line fill="#000000" stroke="#000000" stroke-width="1" x1="521" x2="521" y1="283" y2="288"/>
<line fill="#000000" stroke="#000000" stroke-width="1" x1="521" x2="521" y1="293" y2="298"/>
<line fill="#000000" stroke="#000000" stroke-width="1" x1="521" x2="521" y1="303" y2="308"/>
<line fill="#000000" stroke="#000000" stroke-width="1" x1="521" x2="521" y1="313" y2="318"/>
<line fill="#000000" stroke="#000000" stroke-width="1" x1="521" x2="521" y1="323" y2="328"/>
<line fill="#000000" stroke="#000000" stroke-width="1" x1="521" x2="521" y1="333" y2="338"/>
<line fill="#000000" stroke="#000000" stroke-width="1" x1="521" x2="521" y1="343" y2="348"/>
<line fill="#000000" stroke="#000000" stroke-width="1" x1="521" x2="521" y1="353" y2="358"/>
<line fill="#000000" stroke="#000000" stroke-width="1" x1="521" x2="521" y1="363" y2="368"/>
<line fill="#000000" stroke="#000000" stroke-width="1" x1="521" x2="521" y1="373" y2="378"/>
<line fill="#000000" stroke="#000000" stroke-width="1" x1="521" x2="521" y1="383" y2="388"/>
<line fill="#000000" stroke="#000000" stroke-width="1" x1="521" x2="521" y1="393" y2="398"/>
<line fill="#000000" stroke="#000000" stroke-width="1" x1="521" x2="521" y1="403" y2="408"/>
<line fill="#000000" stroke="#000000" stroke-width="1" x1="521" x2="521" y1="413" y2="418"/>
<line fill="#000000" stroke="#000000" stroke-width="1" x1="521" x2="521" y1="423" y2="428"/>
<line fill="#000000" stroke="#000000" stroke-width="1" x1="521" x2="521" y1="433" y2="438"/>
<line fill="#000000" stroke="#000000" stroke-width="1" x1="521" x2="521" y1="443" y2="448"/>
<line fill="#000000" stroke="#000000" stroke-width="1" x1="521" x2="521" y1="453" y2="458"/>
<line fill="#000000" stroke="#000000" stroke-width="1" x1="521" x2="521" y1="463" y2="468"/>
<line fill="#000000" stroke="#000000" stroke-width="1" x1="521" x2="521" y1="473" y2="478"/>
<line fill="#000000" stroke="#000000" stroke-width="1" x1="521" x2="521" y1="483" y2="488"/>
<line fill="#000000" stroke="#000000" stroke-width="1" x1="521" x2="521" y1="493" y2="498"/>
<line fill="#000000" stroke="#000000" stroke-width="1" x1="521" x2="521" y1="503" y2="508"/>
<line fill="#000000" stroke="#000000" stroke-width="1" x1="521" x2="521" y1="513" y2="518"/>
<line fill="#000000" stroke="#000000" stroke-width="1" x1="521" x2="521" y1="523" y2="527"/>
<rect fill="#ffffff" height="464" stroke="#ffffff" stroke-width="1" width="20" x="511" y="63"/>
<rect fill="none" height="464" stroke="#000000" stroke-width="1" width="20" x="511" y="63"/>
<rect fill="#ffffff" height="50" stroke="#ffffff" stroke-width="1" width="150" x="446" y="14"/>
<rect fill="none" height="50" stroke="#000000" stroke-width="1" width="150" x="446" y="14"/>
<text font-family="Dialog" font-size="12" x="502" y="46">
/Login</text>
<text font-family="Dialog" font-size="12" x="495" y="27">
&lt;&lt;UI&gt;&gt;</text>
<line fill="#000000" stroke="#000000" stroke-width="1" x1="99" x2="104" y1="102" y2="102"/>
<line fill="#000000" stroke="#000000" stroke-width="1" x1="109" x2="114" y1="102" y2="102"/>
<line fill="#000000" stroke="#000000" stroke-width="1" x1="119" x2="124" y1="102" y2="102"/>
<line fill="#000000" stroke="#000000" stroke-width="1" x1="129" x2="134" y1="102" y2="102"/>
<line fill="#000000" stroke="#000000" stroke-width="1" x1="139" x2="144" y1="102" y2="102"/>
<line fill="#000000" stroke="#000000" stroke-width="1" x1="149" x2="154" y1="102" y2="102"/>
<line fill="#000000" stroke="#000000" stroke-width="1" x1="159" x2="164" y1="102" y2="102"/>
<line fill="#000000" stroke="#000000" stroke-width="1" x1="169" x2="174" y1="102" y2="102"/>
<line fill="#000000" stroke="#000000" stroke-width="1" x1="179" x2="184" y1="102" y2="102"/>
<line fill="#000000" stroke="#000000" stroke-width="1" x1="189" x2="194" y1="102" y2="102"/>
<line fill="#000000" stroke="#000000" stroke-width="1" x1="199" x2="204" y1="102" y2="102"/>
<line fill="#000000" stroke="#000000" stroke-width="1" x1="209" x2="214" y1="102" y2="102"/>
<line fill="#000000" stroke="#000000" stroke-width="1" x1="219" x2="224" y1="102" y2="102"/>
<line fill="#000000" stroke="#000000" stroke-width="1" x1="229" x2="234" y1="102" y2="102"/>
<line fill="#000000" stroke="#000000" stroke-width="1" x1="239" x2="244" y1="102" y2="102"/>
<line fill="#000000" stroke="#000000" stroke-width="1" x1="249" x2="254" y1="102" y2="102"/>
<line fill="#000000" stroke="#000000" stroke-width="1" x1="259" x2="264" y1="102" y2="102"/>
<line fill="#000000" stroke="#000000" stroke-width="1" x1="269" x2="274" y1="102" y2="102"/>
<line fill="#000000" stroke="#000000" stroke-width="1" x1="279" x2="284" y1="102" y2="102"/>
<line fill="#000000" stroke="#000000" stroke-width="1" x1="289" x2="294" y1="102" y2="102"/>
<line fill="#000000" stroke="#000000" stroke-width="1" x1="299" x2="300" y1="102" y2="102"/>
<line fill="#000000" stroke="#000000" stroke-width="1" x1="288" x2="300" y1="109" y2="102"/>
<line fill="#000000" stroke="#000000" stroke-width="1" x1="288" x2="300" y1="95" y2="102"/>
<text font-family="Dialog" font-size="12" x="153" y="97">
Desea registrar</text>
<line fill="#000000" stroke="#000000" stroke-width="1" x1="320" x2="325" y1="126" y2="126"/>
<line fill="#000000" stroke="#000000" stroke-width="1" x1="330" x2="335" y1="126" y2="126"/>
<line fill="#000000" stroke="#000000" stroke-width="1" x1="340" x2="345" y1="126" y2="126"/>
<line fill="#000000" stroke="#000000" stroke-width="1" x1="350" x2="355" y1="126" y2="126"/>
<line fill="#000000" stroke="#000000" stroke-width="1" x1="360" x2="365" y1="126" y2="126"/>
<line fill="#000000" stroke="#000000" stroke-width="1" x1="370" x2="375" y1="126" y2="126"/>
<line fill="#000000" stroke="#000000" stroke-width="1" x1="380" x2="385" y1="126" y2="126"/>
<line fill="#000000" stroke="#000000" stroke-width="1" x1="390" x2="395" y1="126" y2="126"/>
<line fill="#000000" stroke="#000000" stroke-width="1" x1="400" x2="405" y1="126" y2="126"/>
<line fill="#000000" stroke="#000000" stroke-width="1" x1="410" x2="415" y1="126" y2="126"/>
<line fill="#000000" stroke="#000000" stroke-width="1" x1="420" x2="425" y1="126" y2="126"/>
<line fill="#000000" stroke="#000000" stroke-width="1" x1="430" x2="435" y1="126" y2="126"/>
<line fill="#000000" stroke="#000000" stroke-width="1" x1="440" x2="445" y1="126" y2="126"/>
<line fill="#000000" stroke="#000000" stroke-width="1" x1="450" x2="455" y1="126" y2="126"/>
<line fill="#000000" stroke="#000000" stroke-width="1" x1="460" x2="465" y1="126" y2="126"/>
<line fill="#000000" stroke="#000000" stroke-width="1" x1="470" x2="475" y1="126" y2="126"/>
<line fill="#000000" stroke="#000000" stroke-width="1" x1="480" x2="485" y1="126" y2="126"/>
<line fill="#000000" stroke="#000000" stroke-width="1" x1="490" x2="495" y1="126" y2="126"/>
<line fill="#000000" stroke="#000000" stroke-width="1" x1="500" x2="505" y1="126" y2="126"/>
<line fill="#000000" stroke="#000000" stroke-width="1" x1="510" x2="511" y1="126" y2="126"/>
<line fill="#000000" stroke="#000000" stroke-width="1" x1="499" x2="511" y1="133" y2="126"/>
<line fill="#000000" stroke="#000000" stroke-width="1" x1="499" x2="511" y1="119" y2="126"/>
<text font-family="Dialog" font-size="12" x="355" y="118">
&lt;&lt;iniciar secion&gt;&gt;</text>
<line fill="#000000" stroke="#000000" stroke-width="1" x1="99" x2="104" y1="182" y2="182"/>
<line fill="#000000" stroke="#000000" stroke-width="1" x1="109" x2="114" y1="182" y2="182"/>
<line fill="#000000" stroke="#000000" stroke-width="1" x1="119" x2="124" y1="182" y2="182"/>
<line fill="#000000" stroke="#000000" stroke-width="1" x1="129" x2="134" y1="182" y2="182"/>
<line fill="#000000" stroke="#000000" stroke-width="1" x1="139" x2="144" y1="182" y2="182"/>
<line fill="#000000" stroke="#000000" stroke-width="1" x1="149" x2="154" y1="182" y2="182"/>
<line fill="#000000" stroke="#000000" stroke-width="1" x1="159" x2="164" y1="182" y2="182"/>
<line fill="#000000" stroke="#000000" stroke-width="1" x1="169" x2="174" y1="182" y2="182"/>
<line fill="#000000" stroke="#000000" stroke-width="1" x1="179" x2="184" y1="182" y2="182"/>
<line fill="#000000" stroke="#000000" stroke-width="1" x1="189" x2="194" y1="182" y2="182"/>
<line fill="#000000" stroke="#000000" stroke-width="1" x1="199" x2="204" y1="182" y2="182"/>
<line fill="#000000" stroke="#000000" stroke-width="1" x1="209" x2="214" y1="182" y2="182"/>
<line fill="#000000" stroke="#000000" stroke-width="1" x1="219" x2="224" y1="182" y2="182"/>
<line fill="#000000" stroke="#000000" stroke-width="1" x1="229" x2="234" y1="182" y2="182"/>
<line fill="#000000" stroke="#000000" stroke-width="1" x1="239" x2="244" y1="182" y2="182"/>
<line fill="#000000" stroke="#000000" stroke-width="1" x1="249" x2="254" y1="182" y2="182"/>
<line fill="#000000" stroke="#000000" stroke-width="1" x1="259" x2="264" y1="182" y2="182"/>
<line fill="#000000" stroke="#000000" stroke-width="1" x1="269" x2="274" y1="182" y2="182"/>
<line fill="#000000" stroke="#000000" stroke-width="1" x1="279" x2="284" y1="182" y2="182"/>
<line fill="#000000" stroke="#000000" stroke-width="1" x1="289" x2="294" y1="182" y2="182"/>
<line fill="#000000" stroke="#000000" stroke-width="1" x1="299" x2="304" y1="182" y2="182"/>
<line fill="#000000" stroke="#000000" stroke-width="1" x1="309" x2="314" y1="182" y2="182"/>
<line fill="#000000" stroke="#000000" stroke-width="1" x1="319" x2="324" y1="182" y2="182"/>
<line fill="#000000" stroke="#000000" stroke-width="1" x1="329" x2="334" y1="182" y2="182"/>
<line fill="#000000" stroke="#000000" stroke-width="1" x1="339" x2="344" y1="182" y2="182"/>
<line fill="#000000" stroke="#000000" stroke-width="1" x1="349" x2="354" y1="182" y2="182"/>
<line fill="#000000" stroke="#000000" stroke-width="1" x1="359" x2="364" y1="182" y2="182"/>
<line fill="#000000" stroke="#000000" stroke-width="1" x1="369" x2="374" y1="182" y2="182"/>
<line fill="#000000" stroke="#000000" stroke-width="1" x1="379" x2="384" y1="182" y2="182"/>
<line fill="#000000" stroke="#000000" stroke-width="1" x1="389" x2="394" y1="182" y2="182"/>
<line fill="#000000" stroke="#000000" stroke-width="1" x1="399" x2="404" y1="182" y2="182"/>
<line fill="#000000" stroke="#000000" stroke-width="1" x1="409" x2="414" y1="182" y2="182"/>
<line fill="#000000" stroke="#000000" stroke-width="1" x1="419" x2="424" y1="182" y2="182"/>
<line fill="#000000" stroke="#000000" stroke-width="1" x1="429" x2="434" y1="182" y2="182"/>
<line fill="#000000" stroke="#000000" stroke-width="1" x1="439" x2="444" y1="182" y2="182"/>
<line fill="#000000" stroke="#000000" stroke-width="1" x1="449" x2="454" y1="182" y2="182"/>
<line fill="#000000" stroke="#000000" stroke-width="1" x1="459" x2="464" y1="182" y2="182"/>
<line fill="#000000" stroke="#000000" stroke-width="1" x1="469" x2="474" y1="182" y2="182"/>
<line fill="#000000" stroke="#000000" stroke-width="1" x1="479" x2="484" y1="182" y2="182"/>
<line fill="#000000" stroke="#000000" stroke-width="1" x1="489" x2="494" y1="182" y2="182"/>
<line fill="#000000" stroke="#000000" stroke-width="1" x1="499" x2="504" y1="182" y2="182"/>
<line fill="#000000" stroke="#000000" stroke-width="1" x1="509" x2="511" y1="182" y2="182"/>
<line fill="#000000" stroke="#000000" stroke-width="1" x1="499" x2="511" y1="189" y2="182"/>
<line fill="#000000" stroke="#000000" stroke-width="1" x1="499" x2="511" y1="175" y2="182"/>
<text font-family="Dialog" font-size="12" x="257" y="177">
ingresa nombre de usuario</text>
<line fill="#000000" stroke="#000000" stroke-width="1" x1="99" x2="104" y1="222" y2="222"/>
<line fill="#000000" stroke="#000000" stroke-width="1" x1="109" x2="114" y1="222" y2="222"/>
<line fill="#000000" stroke="#000000" stroke-width="1" x1="119" x2="124" y1="222" y2="222"/>
<line fill="#000000" stroke="#000000" stroke-width="1" x1="129" x2="134" y1="222" y2="222"/>
<line fill="#000000" stroke="#000000" stroke-width="1" x1="139" x2="144" y1="222" y2="222"/>
<line fill="#000000" stroke="#000000" stroke-width="1" x1="149" x2="154" y1="222" y2="222"/>
<line fill="#000000" stroke="#000000" stroke-width="1" x1="159" x2="164" y1="222" y2="222"/>
<line fill="#000000" stroke="#000000" stroke-width="1" x1="169" x2="174" y1="222" y2="222"/>
<line fill="#000000" stroke="#000000" stroke-width="1" x1="179" x2="184" y1="222" y2="222"/>
<line fill="#000000" stroke="#000000" stroke-width="1" x1="189" x2="194" y1="222" y2="222"/>
<line fill="#000000" stroke="#000000" stroke-width="1" x1="199" x2="204" y1="222" y2="222"/>
<line fill="#000000" stroke="#000000" stroke-width="1" x1="209" x2="214" y1="222" y2="222"/>
<line fill="#000000" stroke="#000000" stroke-width="1" x1="219" x2="224" y1="222" y2="222"/>
<line fill="#000000" stroke="#000000" stroke-width="1" x1="229" x2="234" y1="222" y2="222"/>
<line fill="#000000" stroke="#000000" stroke-width="1" x1="239" x2="244" y1="222" y2="222"/>
<line fill="#000000" stroke="#000000" stroke-width="1" x1="249" x2="254" y1="222" y2="222"/>
<line fill="#000000" stroke="#000000" stroke-width="1" x1="259" x2="264" y1="222" y2="222"/>
<line fill="#000000" stroke="#000000" stroke-width="1" x1="269" x2="274" y1="222" y2="222"/>
<line fill="#000000" stroke="#000000" stroke-width="1" x1="279" x2="284" y1="222" y2="222"/>
<line fill="#000000" stroke="#000000" stroke-width="1" x1="289" x2="294" y1="222" y2="222"/>
<line fill="#000000" stroke="#000000" stroke-width="1" x1="299" x2="304" y1="222" y2="222"/>
<line fill="#000000" stroke="#000000" stroke-width="1" x1="309" x2="314" y1="222" y2="222"/>
<line fill="#000000" stroke="#000000" stroke-width="1" x1="319" x2="324" y1="222" y2="222"/>
<line fill="#000000" stroke="#000000" stroke-width="1" x1="329" x2="334" y1="222" y2="222"/>
<line fill="#000000" stroke="#000000" stroke-width="1" x1="339" x2="344" y1="222" y2="222"/>
<line fill="#000000" stroke="#000000" stroke-width="1" x1="349" x2="354" y1="222" y2="222"/>
<line fill="#000000" stroke="#000000" stroke-width="1" x1="359" x2="364" y1="222" y2="222"/>
<line fill="#000000" stroke="#000000" stroke-width="1" x1="369" x2="374" y1="222" y2="222"/>
<line fill="#000000" stroke="#000000" stroke-width="1" x1="379" x2="384" y1="222" y2="222"/>
<line fill="#000000" stroke="#000000" stroke-width="1" x1="389" x2="394" y1="222" y2="222"/>
<line fill="#000000" stroke="#000000" stroke-width="1" x1="399" x2="404" y1="222" y2="222"/>
<line fill="#000000" stroke="#000000" stroke-width="1" x1="409" x2="414" y1="222" y2="222"/>
<line fill="#000000" stroke="#000000" stroke-width="1" x1="419" x2="424" y1="222" y2="222"/>
<line fill="#000000" stroke="#000000" stroke-width="1" x1="429" x2="434" y1="222" y2="222"/>
<line fill="#000000" stroke="#000000" stroke-width="1" x1="439" x2="444" y1="222" y2="222"/>
<line fill="#000000" stroke="#000000" stroke-width="1" x1="449" x2="454" y1="222" y2="222"/>
<line fill="#000000" stroke="#000000" stroke-width="1" x1="459" x2="464" y1="222" y2="222"/>
<line fill="#000000" stroke="#000000" stroke-width="1" x1="469" x2="474" y1="222" y2="222"/>
<line fill="#000000" stroke="#000000" stroke-width="1" x1="479" x2="484" y1="222" y2="222"/>
<line fill="#000000" stroke="#000000" stroke-width="1" x1="489" x2="494" y1="222" y2="222"/>
<line fill="#000000" stroke="#000000" stroke-width="1" x1="499" x2="504" y1="222" y2="222"/>
<line fill="#000000" stroke="#000000" stroke-width="1" x1="509" x2="511" y1="222" y2="222"/>
<line fill="#000000" stroke="#000000" stroke-width="1" x1="499" x2="511" y1="229" y2="222"/>
<line fill="#000000" stroke="#000000" stroke-width="1" x1="499" x2="511" y1="215" y2="222"/>
<text font-family="Dialog" font-size="12" x="258" y="217">
Ingresa contraseña</text>
<line fill="#000000" stroke="#000000" stroke-width="1" x1="729" x2="729" y1="63" y2="68"/>
<line fill="#000000" stroke="#000000" stroke-width="1" x1="729" x2="729" y1="73" y2="78"/>
<line fill="#000000" stroke="#000000" stroke-width="1" x1="729" x2="729" y1="83" y2="88"/>
<line fill="#000000" stroke="#000000" stroke-width="1" x1="729" x2="729" y1="93" y2="98"/>
<line fill="#000000" stroke="#000000" stroke-width="1" x1="729" x2="729" y1="103" y2="108"/>
<line fill="#000000" stroke="#000000" stroke-width="1" x1="729" x2="729" y1="113" y2="118"/>
<line fill="#000000" stroke="#000000" stroke-width="1" x1="729" x2="729" y1="123" y2="128"/>
<line fill="#000000" stroke="#000000" stroke-width="1" x1="729" x2="729" y1="133" y2="138"/>
<line fill="#000000" stroke="#000000" stroke-width="1" x1="729" x2="729" y1="143" y2="148"/>
<line fill="#000000" stroke="#000000" stroke-width="1" x1="729" x2="729" y1="153" y2="158"/>
<line fill="#000000" stroke="#000000" stroke-width="1" x1="729" x2="729" y1="163" y2="168"/>
<line fill="#000000" stroke="#000000" stroke-width="1" x1="729" x2="729" y1="173" y2="178"/>
<line fill="#000000" stroke="#000000" stroke-width="1" x1="729" x2="729" y1="183" y2="188"/>
<line fill="#000000" stroke="#000000" stroke-width="1" x1="729" x2="729" y1="193" y2="198"/>
<line fill="#000000" stroke="#000000" stroke-width="1" x1="729" x2="729" y1="203" y2="208"/>
<line fill="#000000" stroke="#000000" stroke-width="1" x1="729" x2="729" y1="213" y2="218"/>
<line fill="#000000" stroke="#000000" stroke-width="1" x1="729" x2="729" y1="223" y2="228"/>
<line fill="#000000" stroke="#000000" stroke-width="1" x1="729" x2="729" y1="233" y2="238"/>
<line fill="#000000" stroke="#000000" stroke-width="1" x1="729" x2="729" y1="243" y2="248"/>
<line fill="#000000" stroke="#000000" stroke-width="1" x1="729" x2="729" y1="253" y2="258"/>
<line fill="#000000" stroke="#000000" stroke-width="1" x1="729" x2="729" y1="263" y2="268"/>
<line fill="#000000" stroke="#000000" stroke-width="1" x1="729" x2="729" y1="273" y2="278"/>
<line fill="#000000" stroke="#000000" stroke-width="1" x1="729" x2="729" y1="283" y2="288"/>
<line fill="#000000" stroke="#000000" stroke-width="1" x1="729" x2="729" y1="293" y2="298"/>
<line fill="#000000" stroke="#000000" stroke-width="1" x1="729" x2="729" y1="303" y2="308"/>
<line fill="#000000" stroke="#000000" stroke-width="1" x1="729" x2="729" y1="313" y2="318"/>
<line fill="#000000" stroke="#000000" stroke-width="1" x1="729" x2="729" y1="323" y2="328"/>
<line fill="#000000" stroke="#000000" stroke-width="1" x1="729" x2="729" y1="333" y2="338"/>
<line fill="#000000" stroke="#000000" stroke-width="1" x1="729" x2="729" y1="343" y2="348"/>
<line fill="#000000" stroke="#000000" stroke-width="1" x1="729" x2="729" y1="353" y2="358"/>
<line fill="#000000" stroke="#000000" stroke-width="1" x1="729" x2="729" y1="363" y2="368"/>
<line fill="#000000" stroke="#000000" stroke-width="1" x1="729" x2="729" y1="373" y2="378"/>
<line fill="#000000" stroke="#000000" stroke-width="1" x1="729" x2="729" y1="383" y2="388"/>
<line fill="#000000" stroke="#000000" stroke-width="1" x1="729" x2="729" y1="393" y2="398"/>
<line fill="#000000" stroke="#000000" stroke-width="1" x1="729" x2="729" y1="403" y2="408"/>
<line fill="#000000" stroke="#000000" stroke-width="1" x1="729" x2="729" y1="413" y2="418"/>
<line fill="#000000" stroke="#000000" stroke-width="1" x1="729" x2="729" y1="423" y2="428"/>
<line fill="#000000" stroke="#000000" stroke-width="1" x1="729" x2="729" y1="433" y2="438"/>
<line fill="#000000" stroke="#000000" stroke-width="1" x1="729" x2="729" y1="443" y2="448"/>
<line fill="#000000" stroke="#000000" stroke-width="1" x1="729" x2="729" y1="453" y2="458"/>
<line fill="#000000" stroke="#000000" stroke-width="1" x1="729" x2="729" y1="463" y2="468"/>
<line fill="#000000" stroke="#000000" stroke-width="1" x1="729" x2="729" y1="473" y2="478"/>
<line fill="#000000" stroke="#000000" stroke-width="1" x1="729" x2="729" y1="483" y2="488"/>
<line fill="#000000" stroke="#000000" stroke-width="1" x1="729" x2="729" y1="493" y2="498"/>
<line fill="#000000" stroke="#000000" stroke-width="1" x1="729" x2="729" y1="503" y2="508"/>
<line fill="#000000" stroke="#000000" stroke-width="1" x1="729" x2="729" y1="513" y2="518"/>
<line fill="#000000" stroke="#000000" stroke-width="1" x1="729" x2="729" y1="523" y2="528"/>
<rect fill="#ffffff" height="50" stroke="#ffffff" stroke-width="1" width="20" x="719" y="254"/>
<rect fill="none" height="50" stroke="#000000" stroke-width="1" width="20" x="719" y="254"/>
<rect fill="#ffffff" height="50" stroke="#ffffff" stroke-width="1" width="150" x="654" y="14"/>
<rect fill="none" height="50" stroke="#000000" stroke-width="1" width="150" x="654" y="14"/>
<text font-family="Dialog" font-size="12" x="712" y="27">
/User</text>
<polyline fill="none" points="531,254 719,254" stroke="#000000" stroke-width="1"/>
<polygon fill="#000000" points="719,254 707,261 707,247" stroke="#000000" stroke-width="1"/>
<polygon fill="none" points="719,254 707,261 707,247" stroke="#000000" stroke-width="1"/>
<text font-family="Dialog" font-size="12" x="579" y="249">
esValido(usr, pwd)</text>
<polyline fill="none" points="719,304 531,304" stroke="#000000" stroke-width="1"/>
<line fill="#000000" stroke="#000000" stroke-width="1" x1="543" x2="531" y1="297" y2="304"/>
<line fill="#000000" stroke="#000000" stroke-width="1" x1="543" x2="531" y1="311" y2="304"/>
<text font-family="Dialog" font-size="12" x="591" y="299">
si</text>
<line fill="#000000" stroke="#000000" stroke-width="1" x1="511" x2="506" y1="334" y2="334"/>
<line fill="#000000" stroke="#000000" stroke-width="1" x1="501" x2="496" y1="334" y2="334"/>
<line fill="#000000" stroke="#000000" stroke-width="1" x1="491" x2="486" y1="334" y2="334"/>
<line fill="#000000" stroke="#000000" stroke-width="1" x1="481" x2="476" y1="334" y2="334"/>
<line fill="#000000" stroke="#000000" stroke-width="1" x1="471" x2="466" y1="334" y2="334"/>
<line fill="#000000" stroke="#000000" stroke-width="1" x1="461" x2="456" y1="334" y2="334"/>
<line fill="#000000" stroke="#000000" stroke-width="1" x1="451" x2="446" y1="334" y2="334"/>
<line fill="#000000" stroke="#000000" stroke-width="1" x1="441" x2="436" y1="334" y2="334"/>
<line fill="#000000" stroke="#000000" stroke-width="1" x1="431" x2="426" y1="334" y2="334"/>
<line fill="#000000" stroke="#000000" stroke-width="1" x1="421" x2="416" y1="334" y2="334"/>
<line fill="#000000" stroke="#000000" stroke-width="1" x1="411" x2="406" y1="334" y2="334"/>
<line fill="#000000" stroke="#000000" stroke-width="1" x1="401" x2="396" y1="334" y2="334"/>
<line fill="#000000" stroke="#000000" stroke-width="1" x1="391" x2="386" y1="334" y2="334"/>
<line fill="#000000" stroke="#000000" stroke-width="1" x1="381" x2="376" y1="334" y2="334"/>
<line fill="#000000" stroke="#000000" stroke-width="1" x1="371" x2="366" y1="334" y2="334"/>
<line fill="#000000" stroke="#000000" stroke-width="1" x1="361" x2="356" y1="334" y2="334"/>
<line fill="#000000" stroke="#000000" stroke-width="1" x1="351" x2="346" y1="334" y2="334"/>
<line fill="#000000" stroke="#000000" stroke-width="1" x1="341" x2="336" y1="334" y2="334"/>
<line fill="#000000" stroke="#000000" stroke-width="1" x1="331" x2="326" y1="334" y2="334"/>
<line fill="#000000" stroke="#000000" stroke-width="1" x1="321" x2="320" y1="334" y2="334"/>
<line fill="#000000" stroke="#000000" stroke-width="1" x1="332" x2="320" y1="327" y2="334"/>
<line fill="#000000" stroke="#000000" stroke-width="1" x1="332" x2="320" y1="341" y2="334"/>
<text font-family="Dialog" font-size="12" x="371" y="329">
usuario</text>
<line fill="#000000" stroke="#000000" stroke-width="1" x1="929" x2="929" y1="63" y2="68"/>
<line fill="#000000" stroke="#000000" stroke-width="1" x1="929" x2="929" y1="73" y2="78"/>
<line fill="#000000" stroke="#000000" stroke-width="1" x1="929" x2="929" y1="83" y2="88"/>
<line fill="#000000" stroke="#000000" stroke-width="1" x1="929" x2="929" y1="93" y2="98"/>
<line fill="#000000" stroke="#000000" stroke-width="1" x1="929" x2="929" y1="103" y2="108"/>
<line fill="#000000" stroke="#000000" stroke-width="1" x1="929" x2="929" y1="113" y2="118"/>
<line fill="#000000" stroke="#000000" stroke-width="1" x1="929" x2="929" y1="123" y2="128"/>
<line fill="#000000" stroke="#000000" stroke-width="1" x1="929" x2="929" y1="133" y2="138"/>
<line fill="#000000" stroke="#000000" stroke-width="1" x1="929" x2="929" y1="143" y2="148"/>
<line fill="#000000" stroke="#000000" stroke-width="1" x1="929" x2="929" y1="153" y2="158"/>
<line fill="#000000" stroke="#000000" stroke-width="1" x1="929" x2="929" y1="163" y2="168"/>
<line fill="#000000" stroke="#000000" stroke-width="1" x1="929" x2="929" y1="173" y2="178"/>
<line fill="#000000" stroke="#000000" stroke-width="1" x1="929" x2="929" y1="183" y2="188"/>
<line fill="#000000" stroke="#000000" stroke-width="1" x1="929" x2="929" y1="193" y2="198"/>
<line fill="#000000" stroke="#000000" stroke-width="1" x1="929" x2="929" y1="203" y2="208"/>
<line fill="#000000" stroke="#000000" stroke-width="1" x1="929" x2="929" y1="213" y2="218"/>
<line fill="#000000" stroke="#000000" stroke-width="1" x1="929" x2="929" y1="223" y2="228"/>
<line fill="#000000" stroke="#000000" stroke-width="1" x1="929" x2="929" y1="233" y2="238"/>
<line fill="#000000" stroke="#000000" stroke-width="1" x1="929" x2="929" y1="243" y2="248"/>
<line fill="#000000" stroke="#000000" stroke-width="1" x1="929" x2="929" y1="253" y2="258"/>
<line fill="#000000" stroke="#000000" stroke-width="1" x1="929" x2="929" y1="263" y2="268"/>
<line fill="#000000" stroke="#000000" stroke-width="1" x1="929" x2="929" y1="273" y2="278"/>
<line fill="#000000" stroke="#000000" stroke-width="1" x1="929" x2="929" y1="283" y2="288"/>
<line fill="#000000" stroke="#000000" stroke-width="1" x1="929" x2="929" y1="293" y2="298"/>
<line fill="#000000" stroke="#000000" stroke-width="1" x1="929" x2="929" y1="303" y2="308"/>
<line fill="#000000" stroke="#000000" stroke-width="1" x1="929" x2="929" y1="313" y2="318"/>
<line fill="#000000" stroke="#000000" stroke-width="1" x1="929" x2="929" y1="323" y2="328"/>
<line fill="#000000" stroke="#000000" stroke-width="1" x1="929" x2="929" y1="333" y2="338"/>
<line fill="#000000" stroke="#000000" stroke-width="1" x1="929" x2="929" y1="343" y2="348"/>
<line fill="#000000" stroke="#000000" stroke-width="1" x1="929" x2="929" y1="353" y2="358"/>
<line fill="#000000" stroke="#000000" stroke-width="1" x1="929" x2="929" y1="363" y2="368"/>
<line fill="#000000" stroke="#000000" stroke-width="1" x1="929" x2="929" y1="373" y2="378"/>
<line fill="#000000" stroke="#000000" stroke-width="1" x1="929" x2="929" y1="383" y2="388"/>
<line fill="#000000" stroke="#000000" stroke-width="1" x1="929" x2="929" y1="393" y2="398"/>
<line fill="#000000" stroke="#000000" stroke-width="1" x1="929" x2="929" y1="403" y2="408"/>
<line fill="#000000" stroke="#000000" stroke-width="1" x1="929" x2="929" y1="413" y2="418"/>
<line fill="#000000" stroke="#000000" stroke-width="1" x1="929" x2="929" y1="423" y2="428"/>
<line fill="#000000" stroke="#000000" stroke-width="1" x1="929" x2="929" y1="433" y2="438"/>
<line fill="#000000" stroke="#000000" stroke-width="1" x1="929" x2="929" y1="443" y2="448"/>
<line fill="#000000" stroke="#000000" stroke-width="1" x1="929" x2="929" y1="453" y2="458"/>
<line fill="#000000" stroke="#000000" stroke-width="1" x1="929" x2="929" y1="463" y2="468"/>
<line fill="#000000" stroke="#000000" stroke-width="1" x1="929" x2="929" y1="473" y2="478"/>
<line fill="#000000" stroke="#000000" stroke-width="1" x1="929" x2="929" y1="483" y2="488"/>
<line fill="#000000" stroke="#000000" stroke-width="1" x1="929" x2="929" y1="493" y2="498"/>
<line fill="#000000" stroke="#000000" stroke-width="1" x1="929" x2="929" y1="503" y2="508"/>
<line fill="#000000" stroke="#000000" stroke-width="1" x1="929" x2="929" y1="513" y2="518"/>
<line fill="#000000" stroke="#000000" stroke-width="1" x1="929" x2="929" y1="523" y2="528"/>
<rect fill="#ffffff" height="50" stroke="#ffffff" stroke-width="1" width="20" x="919" y="382"/>
<rect fill="none" height="50" stroke="#000000" stroke-width="1" width="20" x="919" y="382"/>
<rect fill="#ffffff" height="50" stroke="#ffffff" stroke-width="1" width="150" x="854" y="14"/>
<rect fill="none" height="50" stroke="#000000" stroke-width="1" width="150" x="854" y="14"/>
<text font-family="Dialog" font-size="12" x="874" y="27">
/RegistroVehiculo</text>
<polyline fill="none" points="320,382 919,382" stroke="#000000" stroke-width="1"/>
<polygon fill="#000000" points="919,382 907,389 907,375" stroke="#000000" stroke-width="1"/>
<polygon fill="none" points="919,382 907,389 907,375" stroke="#000000" stroke-width="1"/>
<text font-family="Dialog" font-size="12" x="573" y="377">
guardarFormulario()</text>
<polyline fill="none" points="919,432 320,432" stroke="#000000" stroke-width="1"/>
<line fill="#000000" stroke="#000000" stroke-width="1" x1="332" x2="320" y1="425" y2="432"/>
<line fill="#000000" stroke="#000000" stroke-width="1" x1="332" x2="320" y1="439" y2="432"/>
<text font-family="Dialog" font-size="12" x="574" y="427">
Formulario guardado</text>
</svg>
