<?xml version="1.0" encoding="utf-8" ?>
<!DOCTYPE svg PUBLIC "-//W3C//DTD SVG 1.1//EN" "http://www.w3.org/Graphics/SVG/1.1/DTD/svg11.dtd">
<svg height="570" version="1.1" width="986" xmlns="http://www.w3.org/2000/svg">
<line fill="#000000" stroke="#000000" stroke-width="1" x1="89" x2="89" y1="63" y2="68"/>
<line fill="#000000" stroke="#000000" stroke-width="1" x1="89" x2="89" y1="73" y2="78"/>
<line fill="#000000" stroke="#000000" stroke-width="1" x1="89" x2="89" y1="83" y2="88"/>
<line fill="#000000" stroke="#000000" stroke-width="1" x1="89" x2="89" y1="93" y2="98"/>
<line fill="#000000" stroke="#000000" stroke-width="1" x1="89" x2="89" y1="103" y2="108"/>
<line fill="#000000" stroke="#000000" stroke-width="1" x1="89" x2="89" y1="113" y2="118"/>
<line fill="#000000" stroke="#000000" stroke-width="1" x1="89" x2="89" y1="123" y2="128"/>
<line fill="#000000" stroke="#000000" stroke-width="1" x1="89" x2="89" y1="133" y2="138"/>
<line fill="#000000" stroke="#000000" stroke-width="1" x1="89" x2="89" y1="143" y2="148"/>
<line fill="#000000" stroke="#000000" stroke-width="1" x1="89" x2="89" y1="153" y2="158"/>
<line fill="#000000" stroke="#000000" stroke-width="1" x1="89" x2="89" y1="163" y2="168"/>
<line fill="#000000" stroke="#000000" stroke-width="1" x1="89" x2="89" y1="173" y2="178"/>
<line fill="#000000" stroke="#000000" stroke-width="1" x1="89" x2="89" y1="183" y2="188"/>
<line fill="#000000" stroke="#000000" stroke-width="1" x1="89" x2="89" y1="193" y2="198"/>
<line fill="#000000" stroke="#000000" stroke-width="1" x1="89" x2="89" y1="203" y2="208"/>
<line fill="#000000" stroke="#000000" stroke-width="1" x1="89" x2="89" y1="213" y2="218"/>
<line fill="#000000" stroke="#000000" stroke-width="1" x1="89" x2="89" y1="223" y2="228"/>
<line fill="#000000" stroke="#000000" stroke-width="1" x1="89" x2="89" y1="233" y2="238"/>
<line fill="#000000" stroke="#000000" stroke-width="1" x1="89" x2="89" y1="243" y2="248"/>
<line fill="#000000" stroke="#000000" stroke-width="1" x1="89" x2="89" y1="253" y2="258"/>
<line fill="#000000" stroke="#000000" stroke-width="1" x1="89" x2="89" y1="263" y2="268"/>
<line fill="#000000" stroke="#000000" stroke-width="1" x1="89" x2="89" y1="273" y2="278"/>
<line fill="#000000" stroke="#000000" stroke-width="1" x1="89" x2="89" y1="283" y2="288"/>
<line fill="#000000" stroke="#000000" stroke-width="1" x1="89" x2="89" y1="293" y2="298"/>
<line fill="#000000" stroke="#000000" stroke-width="1" x1="89" x2="89" y1="303" y2="308"/>
<line fill="#000000" stroke="#000000" stroke-width="1" x1="89" x2="89" y1="313" y2="318"/>
<line fill="#000000" stroke="#000000" stroke-width="1" x1="89" x2="89" y1="323" y2="328"/>
<line fill="#000000" stroke="#000000" stroke-width="1" x1="89" x2="89" y1="333" y2="338"/>
<line fill="#000000" stroke="#000000" stroke-width="1" x1="89" x2="89" y1="343" y2="348"/>
<line fill="#000000" stroke="#000000" stroke-width="1" x1="89" x2="89" y1="353" y2="358"/>
<line fill="#000000" stroke="#000000" stroke-width="1" x1="89" x2="89" y1="363" y2="368"/>
<line fill="#000000" stroke="#000000" stroke-width="1" x1="89" x2="89" y1="373" y2="378"/>
<line fill="#000000" stroke="#000000" stroke-width="1" x1="89" x2="89" y1="383" y2="388"/>
<line fill="#000000" stroke="#000000" stroke-width="1" x1="89" x2="89" y1="393" y2="398"/>
<line fill="#000000" stroke="#000000" stroke-width="1" x1="89" x2="89" y1="403" y2="408"/>
<line fill="#000000" stroke="#000000" stroke-width="1" x1="89" x2="89" y1="413" y2="418"/>
<line fill="#000000" stroke="#000000" stroke-width="1" x1="89" x2="89" y1="423" y2="428"/>
<line fill="#000000" stroke="#000000" stroke-width="1" x1="89" x2="89" y1="433" y2="438"/>
<line fill="#000000" stroke="#000000" stroke-width="1" x1="89" x2="89" y1="443" y2="448"/>
<line fill="#000000" stroke="#000000" stroke-width="1" x1="89" x2="89" y1="453" y2="458"/>
<line fill="#000000" stroke="#000000" stroke-width="1" x1="89" x2="89" y1="463" y2="468"/>
<line fill="#000000" stroke="#000000" stroke-width="1" x1="89" x2="89" y1="473" y2="478"/>
<line fill="#000000" stroke="#000000" stroke-width="1" x1="89" x2="89" y1="483" y2="488"/>
<line fill="#000000" stroke="#000000" stroke-width="1" x1="89" x2="89" y1="493" y2="498"/>
<line fill="#000000" stroke="#000000" stroke-width="1" x1="89" x2="89" y1="503" y2="508"/>
<line fill="#000000" stroke="#000000" stroke-width="1" x1="89" x2="89" y1="513" y2="518"/>
<line fill="#000000" stroke="#000000" stroke-width="1" x1="89" x2="89" y1="523" y2="528"/>
<line fill="#000000" stroke="#000000" stroke-width="1" x1="89" x2="89" y1="533" y2="538"/>
<line fill="#000000" stroke="#000000" stroke-width="1" x1="89" x2="89" y1="543" y2="548"/>
<line fill="#000000" stroke="#000000" stroke-width="1" x1="89" x2="89" y1="553" y2="555"/>
<rect fill="#ffffff" height="492" stroke="#ffffff" stroke-width="1" width="20" x="79" y="63"/>
<rect fill="none" height="492" stroke="#000000" stroke-width="1" width="20" x="79" y="63"/>
<rect fill="#ffffff" height="50" stroke="#ffffff" stroke-width="1" width="150" x="14" y="14"/>
<rect fill="none" height="50" stroke="#000000" stroke-width="1" width="150" x="14" y="14"/>
<text font-family="Dialog" font-size="12" x="61" y="46">
/Persona</text>
<text font-family="Dialog" font-size="12" x="52" y="27">
&lt;&lt;Actor&gt;&gt;</text>
<line fill="#000000" stroke="#000000" stroke-width="1" x1="281" x2="281" y1="63" y2="68"/>
<line fill="#000000" stroke="#000000" stroke-width="1" x1="281" x2="281" y1="73" y2="78"/>
<line fill="#000000" stroke="#000000" stroke-width="1" x1="281" x2="281" y1="83" y2="88"/>
<line fill="#000000" stroke="#000000" stroke-width="1" x1="281" x2="281" y1="93" y2="98"/>
<line fill="#000000" stroke="#000000" stroke-width="1" x1="281" x2="281" y1="103" y2="108"/>
<line fill="#000000" stroke="#000000" stroke-width="1" x1="281" x2="281" y1="113" y2="118"/>
<line fill="#000000" stroke="#000000" stroke-width="1" x1="281" x2="281" y1="123" y2="128"/>
<line fill="#000000" stroke="#000000" stroke-width="1" x1="281" x2="281" y1="133" y2="138"/>
<line fill="#000000" stroke="#000000" stroke-width="1" x1="281" x2="281" y1="143" y2="148"/>
<line fill="#000000" stroke="#000000" stroke-width="1" x1="281" x2="281" y1="153" y2="158"/>
<line fill="#000000" stroke="#000000" stroke-width="1" x1="281" x2="281" y1="163" y2="168"/>
<line fill="#000000" stroke="#000000" stroke-width="1" x1="281" x2="281" y1="173" y2="178"/>
<line fill="#000000" stroke="#000000" stroke-width="1" x1="281" x2="281" y1="183" y2="188"/>
<line fill="#000000" stroke="#000000" stroke-width="1" x1="281" x2="281" y1="193" y2="198"/>
<line fill="#000000" stroke="#000000" stroke-width="1" x1="281" x2="281" y1="203" y2="208"/>
<line fill="#000000" stroke="#000000" stroke-width="1" x1="281" x2="281" y1="213" y2="218"/>
<line fill="#000000" stroke="#000000" stroke-width="1" x1="281" x2="281" y1="223" y2="228"/>
<line fill="#000000" stroke="#000000" stroke-width="1" x1="281" x2="281" y1="233" y2="238"/>
<line fill="#000000" stroke="#000000" stroke-width="1" x1="281" x2="281" y1="243" y2="248"/>
<line fill="#000000" stroke="#000000" stroke-width="1" x1="281" x2="281" y1="253" y2="258"/>
<line fill="#000000" stroke="#000000" stroke-width="1" x1="281" x2="281" y1="263" y2="268"/>
<line fill="#000000" stroke="#000000" stroke-width="1" x1="281" x2="281" y1="273" y2="278"/>
<line fill="#000000" stroke="#000000" stroke-width="1" x1="281" x2="281" y1="283" y2="288"/>
<line fill="#000000" stroke="#000000" stroke-width="1" x1="281" x2="281" y1="293" y2="298"/>
<line fill="#000000" stroke="#000000" stroke-width="1" x1="281" x2="281" y1="303" y2="308"/>
<line fill="#000000" stroke="#000000" stroke-width="1" x1="281" x2="281" y1="313" y2="318"/>
<line fill="#000000" stroke="#000000" stroke-width="1" x1="281" x2="281" y1="323" y2="328"/>
<line fill="#000000" stroke="#000000" stroke-width="1" x1="281" x2="281" y1="333" y2="338"/>
<line fill="#000000" stroke="#000000" stroke-width="1" x1="281" x2="281" y1="343" y2="348"/>
<line fill="#000000" stroke="#000000" stroke-width="1" x1="281" x2="281" y1="353" y2="358"/>
<line fill="#000000" stroke="#000000" stroke-width="1" x1="281" x2="281" y1="363" y2="368"/>
<line fill="#000000" stroke="#000000" stroke-width="1" x1="281" x2="281" y1="373" y2="378"/>
<line fill="#000000" stroke="#000000" stroke-width="1" x1="281" x2="281" y1="383" y2="388"/>
<line fill="#000000" stroke="#000000" stroke-width="1" x1="281" x2="281" y1="393" y2="398"/>
<line fill="#000000" stroke="#000000" stroke-width="1" x1="281" x2="281" y1="403" y2="408"/>
<line fill="#000000" stroke="#000000" stroke-width="1" x1="281" x2="281" y1="413" y2="418"/>
<line fill="#000000" stroke="#000000" stroke-width="1" x1="281" x2="281" y1="423" y2="428"/>
<line fill="#000000" stroke="#000000" stroke-width="1" x1="281" x2="281" y1="433" y2="438"/>
<line fill="#000000" stroke="#000000" stroke-width="1" x1="281" x2="281" y1="443" y2="448"/>
<line fill="#000000" stroke="#000000" stroke-width="1" x1="281" x2="281" y1="453" y2="458"/>
<line fill="#000000" stroke="#000000" stroke-width="1" x1="281" x2="281" y1="463" y2="468"/>
<line fill="#000000" stroke="#000000" stroke-width="1" x1="281" x2="281" y1="473" y2="478"/>
<line fill="#000000" stroke="#000000" stroke-width="1" x1="281" x2="281" y1="483" y2="488"/>
<line fill="#000000" stroke="#000000" stroke-width="1" x1="281" x2="281" y1="493" y2="498"/>
<line fill="#000000" stroke="#000000" stroke-width="1" x1="281" x2="281" y1="503" y2="508"/>
<line fill="#000000" stroke="#000000" stroke-width="1" x1="281" x2="281" y1="513" y2="518"/>
<line fill="#000000" stroke="#000000" stroke-width="1" x1="281" x2="281" y1="523" y2="528"/>
<line fill="#000000" stroke="#000000" stroke-width="1" x1="281" x2="281" y1="533" y2="538"/>
<line fill="#000000" stroke="#000000" stroke-width="1" x1="281" x2="281" y1="543" y2="548"/>
<rect fill="#ffffff" height="487" stroke="#ffffff" stroke-width="1" width="20" x="271" y="63"/>
<rect fill="none" height="487" stroke="#000000" stroke-width="1" width="20" x="271" y="63"/>
<rect fill="#ffffff" height="50" stroke="#ffffff" stroke-width="1" width="150" x="206" y="14"/>
<rect fill="none" height="50" stroke="#000000" stroke-width="1" width="150" x="206" y="14"/>
<text font-family="Dialog" font-size="12" x="254" y="46">
/Guardia</text>
<text font-family="Dialog" font-size="12" x="244" y="27">
&lt;&lt;Actor&gt;&gt;</text>
<line fill="#000000" stroke="#000000" stroke-width="1" x1="489" x2="489" y1="63" y2="68"/>
<line fill="#000000" stroke="#000000" stroke-width="1" x1="489" x2="489" y1="73" y2="78"/>
<line fill="#000000" stroke="#000000" stroke-width="1" x1="489" x2="489" y1="83" y2="88"/>
<line fill="#000000" stroke="#000000" stroke-width="1" x1="489" x2="489" y1="93" y2="98"/>
<line fill="#000000" stroke="#000000" stroke-width="1" x1="489" x2="489" y1="103" y2="108"/>
<line fill="#000000" stroke="#000000" stroke-width="1" x1="489" x2="489" y1="113" y2="118"/>
<line fill="#000000" stroke="#000000" stroke-width="1" x1="489" x2="489" y1="123" y2="128"/>
<line fill="#000000" stroke="#000000" stroke-width="1" x1="489" x2="489" y1="133" y2="138"/>
<line fill="#000000" stroke="#000000" stroke-width="1" x1="489" x2="489" y1="143" y2="148"/>
<line fill="#000000" stroke="#000000" stroke-width="1" x1="489" x2="489" y1="153" y2="158"/>
<line fill="#000000" stroke="#000000" stroke-width="1" x1="489" x2="489" y1="163" y2="168"/>
<line fill="#000000" stroke="#000000" stroke-width="1" x1="489" x2="489" y1="173" y2="178"/>
<line fill="#000000" stroke="#000000" stroke-width="1" x1="489" x2="489" y1="183" y2="188"/>
<line fill="#000000" stroke="#000000" stroke-width="1" x1="489" x2="489" y1="193" y2="198"/>
<line fill="#000000" stroke="#000000" stroke-width="1" x1="489" x2="489" y1="203" y2="208"/>
<line fill="#000000" stroke="#000000" stroke-width="1" x1="489" x2="489" y1="213" y2="218"/>
<line fill="#000000" stroke="#000000" stroke-width="1" x1="489" x2="489" y1="223" y2="228"/>
<line fill="#000000" stroke="#000000" stroke-width="1" x1="489" x2="489" y1="233" y2="238"/>
<line fill="#000000" stroke="#000000" stroke-width="1" x1="489" x2="489" y1="243" y2="248"/>
<line fill="#000000" stroke="#000000" stroke-width="1" x1="489" x2="489" y1="253" y2="258"/>
<line fill="#000000" stroke="#000000" stroke-width="1" x1="489" x2="489" y1="263" y2="268"/>
<line fill="#000000" stroke="#000000" stroke-width="1" x1="489" x2="489" y1="273" y2="278"/>
<line fill="#000000" stroke="#000000" stroke-width="1" x1="489" x2="489" y1="283" y2="288"/>
<line fill="#000000" stroke="#000000" stroke-width="1" x1="489" x2="489" y1="293" y2="298"/>
<line fill="#000000" stroke="#000000" stroke-width="1" x1="489" x2="489" y1="303" y2="308"/>
<line fill="#000000" stroke="#000000" stroke-width="1" x1="489" x2="489" y1="313" y2="318"/>
<line fill="#000000" stroke="#000000" stroke-width="1" x1="489" x2="489" y1="323" y2="328"/>
<line fill="#000000" stroke="#000000" stroke-width="1" x1="489" x2="489" y1="333" y2="338"/>
<line fill="#000000" stroke="#000000" stroke-width="1" x1="489" x2="489" y1="343" y2="348"/>
<line fill="#000000" stroke="#000000" stroke-width="1" x1="489" x2="489" y1="353" y2="358"/>
<line fill="#000000" stroke="#000000" stroke-width="1" x1="489" x2="489" y1="363" y2="368"/>
<line fill="#000000" stroke="#000000" stroke-width="1" x1="489" x2="489" y1="373" y2="378"/>
<line fill="#000000" stroke="#000000" stroke-width="1" x1="489" x2="489" y1="383" y2="388"/>
<line fill="#000000" stroke="#000000" stroke-width="1" x1="489" x2="489" y1="393" y2="398"/>
<line fill="#000000" stroke="#000000" stroke-width="1" x1="489" x2="489" y1="403" y2="408"/>
<line fill="#000000" stroke="#000000" stroke-width="1" x1="489" x2="489" y1="413" y2="418"/>
<line fill="#000000" stroke="#000000" stroke-width="1" x1="489" x2="489" y1="423" y2="428"/>
<line fill="#000000" stroke="#000000" stroke-width="1" x1="489" x2="489" y1="433" y2="438"/>
<line fill="#000000" stroke="#000000" stroke-width="1" x1="489" x2="489" y1="443" y2="448"/>
<line fill="#000000" stroke="#000000" stroke-width="1" x1="489" x2="489" y1="453" y2="458"/>
<line fill="#000000" stroke="#000000" stroke-width="1" x1="489" x2="489" y1="463" y2="468"/>
<line fill="#000000" stroke="#000000" stroke-width="1" x1="489" x2="489" y1="473" y2="478"/>
<line fill="#000000" stroke="#000000" stroke-width="1" x1="489" x2="489" y1="483" y2="488"/>
<line fill="#000000" stroke="#000000" stroke-width="1" x1="489" x2="489" y1="493" y2="498"/>
<line fill="#000000" stroke="#000000" stroke-width="1" x1="489" x2="489" y1="503" y2="508"/>
<line fill="#000000" stroke="#000000" stroke-width="1" x1="489" x2="489" y1="513" y2="518"/>
<line fill="#000000" stroke="#000000" stroke-width="1" x1="489" x2="489" y1="523" y2="528"/>
<line fill="#000000" stroke="#000000" stroke-width="1" x1="489" x2="489" y1="533" y2="538"/>
<line fill="#000000" stroke="#000000" stroke-width="1" x1="489" x2="489" y1="543" y2="548"/>
<line fill="#000000" stroke="#000000" stroke-width="1" x1="489" x2="489" y1="553" y2="555"/>
<rect fill="#ffffff" height="50" stroke="#ffffff" stroke-width="1" width="20" x="479" y="158"/>
<rect fill="none" height="50" stroke="#000000" stroke-width="1" width="20" x="479" y="158"/>
<rect fill="#ffffff" height="50" stroke="#ffffff" stroke-width="1" width="150" x="414" y="14"/>
<rect fill="none" height="50" stroke="#000000" stroke-width="1" width="150" x="414" y="14"/>
<text font-family="Dialog" font-size="12" x="458" y="46">
/AuthUser</text>
<text font-family="Dialog" font-size="12" x="446" y="27">
&lt;&lt;System&gt;&gt;</text>
<line fill="#000000" stroke="#000000" stroke-width="1" x1="689" x2="689" y1="63" y2="68"/>
<line fill="#000000" stroke="#000000" stroke-width="1" x1="689" x2="689" y1="73" y2="78"/>
<line fill="#000000" stroke="#000000" stroke-width="1" x1="689" x2="689" y1="83" y2="88"/>
<line fill="#000000" stroke="#000000" stroke-width="1" x1="689" x2="689" y1="93" y2="98"/>
<line fill="#000000" stroke="#000000" stroke-width="1" x1="689" x2="689" y1="103" y2="108"/>
<line fill="#000000" stroke="#000000" stroke-width="1" x1="689" x2="689" y1="113" y2="118"/>
<line fill="#000000" stroke="#000000" stroke-width="1" x1="689" x2="689" y1="123" y2="128"/>
<line fill="#000000" stroke="#000000" stroke-width="1" x1="689" x2="689" y1="133" y2="138"/>
<line fill="#000000" stroke="#000000" stroke-width="1" x1="689" x2="689" y1="143" y2="148"/>
<line fill="#000000" stroke="#000000" stroke-width="1" x1="689" x2="689" y1="153" y2="158"/>
<line fill="#000000" stroke="#000000" stroke-width="1" x1="689" x2="689" y1="163" y2="168"/>
<line fill="#000000" stroke="#000000" stroke-width="1" x1="689" x2="689" y1="173" y2="178"/>
<line fill="#000000" stroke="#000000" stroke-width="1" x1="689" x2="689" y1="183" y2="188"/>
<line fill="#000000" stroke="#000000" stroke-width="1" x1="689" x2="689" y1="193" y2="198"/>
<line fill="#000000" stroke="#000000" stroke-width="1" x1="689" x2="689" y1="203" y2="208"/>
<line fill="#000000" stroke="#000000" stroke-width="1" x1="689" x2="689" y1="213" y2="218"/>
<line fill="#000000" stroke="#000000" stroke-width="1" x1="689" x2="689" y1="223" y2="228"/>
<line fill="#000000" stroke="#000000" stroke-width="1" x1="689" x2="689" y1="233" y2="238"/>
<line fill="#000000" stroke="#000000" stroke-width="1" x1="689" x2="689" y1="243" y2="248"/>
<line fill="#000000" stroke="#000000" stroke-width="1" x1="689" x2="689" y1="253" y2="258"/>
<line fill="#000000" stroke="#000000" stroke-width="1" x1="689" x2="689" y1="263" y2="268"/>
<line fill="#000000" stroke="#000000" stroke-width="1" x1="689" x2="689" y1="273" y2="278"/>
<line fill="#000000" stroke="#000000" stroke-width="1" x1="689" x2="689" y1="283" y2="288"/>
<line fill="#000000" stroke="#000000" stroke-width="1" x1="689" x2="689" y1="293" y2="298"/>
<line fill="#000000" stroke="#000000" stroke-width="1" x1="689" x2="689" y1="303" y2="308"/>
<line fill="#000000" stroke="#000000" stroke-width="1" x1="689" x2="689" y1="313" y2="318"/>
<line fill="#000000" stroke="#000000" stroke-width="1" x1="689" x2="689" y1="323" y2="328"/>
<line fill="#000000" stroke="#000000" stroke-width="1" x1="689" x2="689" y1="333" y2="338"/>
<line fill="#000000" stroke="#000000" stroke-width="1" x1="689" x2="689" y1="343" y2="348"/>
<line fill="#000000" stroke="#000000" stroke-width="1" x1="689" x2="689" y1="353" y2="358"/>
<line fill="#000000" stroke="#000000" stroke-width="1" x1="689" x2="689" y1="363" y2="368"/>
<line fill="#000000" stroke="#000000" stroke-width="1" x1="689" x2="689" y1="373" y2="378"/>
<line fill="#000000" stroke="#000000" stroke-width="1" x1="689" x2="689" y1="383" y2="388"/>
<line fill="#000000" stroke="#000000" stroke-width="1" x1="689" x2="689" y1="393" y2="398"/>
<line fill="#000000" stroke="#000000" stroke-width="1" x1="689" x2="689" y1="403" y2="408"/>
<line fill="#000000" stroke="#000000" stroke-width="1" x1="689" x2="689" y1="413" y2="418"/>
<line fill="#000000" stroke="#000000" stroke-width="1" x1="689" x2="689" y1="423" y2="428"/>
<line fill="#000000" stroke="#000000" stroke-width="1" x1="689" x2="689" y1="433" y2="438"/>
<line fill="#000000" stroke="#000000" stroke-width="1" x1="689" x2="689" y1="443" y2="448"/>
<line fill="#000000" stroke="#000000" stroke-width="1" x1="689" x2="689" y1="453" y2="458"/>
<line fill="#000000" stroke="#000000" stroke-width="1" x1="689" x2="689" y1="463" y2="468"/>
<line fill="#000000" stroke="#000000" stroke-width="1" x1="689" x2="689" y1="473" y2="478"/>
<line fill="#000000" stroke="#000000" stroke-width="1" x1="689" x2="689" y1="483" y2="488"/>
<line fill="#000000" stroke="#000000" stroke-width="1" x1="689" x2="689" y1="493" y2="498"/>
<line fill="#000000" stroke="#000000" stroke-width="1" x1="689" x2="689" y1="503" y2="508"/>
<line fill="#000000" stroke="#000000" stroke-width="1" x1="689" x2="689" y1="513" y2="518"/>
<line fill="#000000" stroke="#000000" stroke-width="1" x1="689" x2="689" y1="523" y2="528"/>
<line fill="#000000" stroke="#000000" stroke-width="1" x1="689" x2="689" y1="533" y2="538"/>
<line fill="#000000" stroke="#000000" stroke-width="1" x1="689" x2="689" y1="543" y2="548"/>
<line fill="#000000" stroke="#000000" stroke-width="1" x1="689" x2="689" y1="553" y2="555"/>
<rect fill="#ffffff" height="492" stroke="#ffffff" stroke-width="1" width="20" x="679" y="63"/>
<rect fill="none" height="492" stroke="#000000" stroke-width="1" width="20" x="679" y="63"/>
<rect fill="#ffffff" height="50" stroke="#ffffff" stroke-width="1" width="150" x="614" y="14"/>
<rect fill="none" height="50" stroke="#000000" stroke-width="1" width="150" x="614" y="14"/>
<text font-family="Dialog" font-size="12" x="637" y="46">
/FormRegPerson</text>
<text font-family="Dialog" font-size="12" x="663" y="27">
&lt;&lt;UI&gt;&gt;</text>
<line fill="#000000" stroke="#000000" stroke-width="1" x1="897" x2="897" y1="63" y2="68"/>
<line fill="#000000" stroke="#000000" stroke-width="1" x1="897" x2="897" y1="73" y2="78"/>
<line fill="#000000" stroke="#000000" stroke-width="1" x1="897" x2="897" y1="83" y2="88"/>
<line fill="#000000" stroke="#000000" stroke-width="1" x1="897" x2="897" y1="93" y2="98"/>
<line fill="#000000" stroke="#000000" stroke-width="1" x1="897" x2="897" y1="103" y2="108"/>
<line fill="#000000" stroke="#000000" stroke-width="1" x1="897" x2="897" y1="113" y2="118"/>
<line fill="#000000" stroke="#000000" stroke-width="1" x1="897" x2="897" y1="123" y2="128"/>
<line fill="#000000" stroke="#000000" stroke-width="1" x1="897" x2="897" y1="133" y2="138"/>
<line fill="#000000" stroke="#000000" stroke-width="1" x1="897" x2="897" y1="143" y2="148"/>
<line fill="#000000" stroke="#000000" stroke-width="1" x1="897" x2="897" y1="153" y2="158"/>
<line fill="#000000" stroke="#000000" stroke-width="1" x1="897" x2="897" y1="163" y2="168"/>
<line fill="#000000" stroke="#000000" stroke-width="1" x1="897" x2="897" y1="173" y2="178"/>
<line fill="#000000" stroke="#000000" stroke-width="1" x1="897" x2="897" y1="183" y2="188"/>
<line fill="#000000" stroke="#000000" stroke-width="1" x1="897" x2="897" y1="193" y2="198"/>
<line fill="#000000" stroke="#000000" stroke-width="1" x1="897" x2="897" y1="203" y2="208"/>
<line fill="#000000" stroke="#000000" stroke-width="1" x1="897" x2="897" y1="213" y2="218"/>
<line fill="#000000" stroke="#000000" stroke-width="1" x1="897" x2="897" y1="223" y2="228"/>
<line fill="#000000" stroke="#000000" stroke-width="1" x1="897" x2="897" y1="233" y2="238"/>
<line fill="#000000" stroke="#000000" stroke-width="1" x1="897" x2="897" y1="243" y2="248"/>
<line fill="#000000" stroke="#000000" stroke-width="1" x1="897" x2="897" y1="253" y2="258"/>
<line fill="#000000" stroke="#000000" stroke-width="1" x1="897" x2="897" y1="263" y2="268"/>
<line fill="#000000" stroke="#000000" stroke-width="1" x1="897" x2="897" y1="273" y2="278"/>
<line fill="#000000" stroke="#000000" stroke-width="1" x1="897" x2="897" y1="283" y2="288"/>
<line fill="#000000" stroke="#000000" stroke-width="1" x1="897" x2="897" y1="293" y2="298"/>
<line fill="#000000" stroke="#000000" stroke-width="1" x1="897" x2="897" y1="303" y2="308"/>
<line fill="#000000" stroke="#000000" stroke-width="1" x1="897" x2="897" y1="313" y2="318"/>
<line fill="#000000" stroke="#000000" stroke-width="1" x1="897" x2="897" y1="323" y2="328"/>
<line fill="#000000" stroke="#000000" stroke-width="1" x1="897" x2="897" y1="333" y2="338"/>
<line fill="#000000" stroke="#000000" stroke-width="1" x1="897" x2="897" y1="343" y2="348"/>
<line fill="#000000" stroke="#000000" stroke-width="1" x1="897" x2="897" y1="353" y2="358"/>
<line fill="#000000" stroke="#000000" stroke-width="1" x1="897" x2="897" y1="363" y2="368"/>
<line fill="#000000" stroke="#000000" stroke-width="1" x1="897" x2="897" y1="373" y2="378"/>
<line fill="#000000" stroke="#000000" stroke-width="1" x1="897" x2="897" y1="383" y2="388"/>
<line fill="#000000" stroke="#000000" stroke-width="1" x1="897" x2="897" y1="393" y2="398"/>
<line fill="#000000" stroke="#000000" stroke-width="1" x1="897" x2="897" y1="403" y2="408"/>
<line fill="#000000" stroke="#000000" stroke-width="1" x1="897" x2="897" y1="413" y2="418"/>
<line fill="#000000" stroke="#000000" stroke-width="1" x1="897" x2="897" y1="423" y2="428"/>
<line fill="#000000" stroke="#000000" stroke-width="1" x1="897" x2="897" y1="433" y2="438"/>
<line fill="#000000" stroke="#000000" stroke-width="1" x1="897" x2="897" y1="443" y2="448"/>
<line fill="#000000" stroke="#000000" stroke-width="1" x1="897" x2="897" y1="453" y2="458"/>
<line fill="#000000" stroke="#000000" stroke-width="1" x1="897" x2="897" y1="463" y2="468"/>
<line fill="#000000" stroke="#000000" stroke-width="1" x1="897" x2="897" y1="473" y2="478"/>
<line fill="#000000" stroke="#000000" stroke-width="1" x1="897" x2="897" y1="483" y2="488"/>
<line fill="#000000" stroke="#000000" stroke-width="1" x1="897" x2="897" y1="493" y2="498"/>
<line fill="#000000" stroke="#000000" stroke-width="1" x1="897" x2="897" y1="503" y2="508"/>
<line fill="#000000" stroke="#000000" stroke-width="1" x1="897" x2="897" y1="513" y2="518"/>
<line fill="#000000" stroke="#000000" stroke-width="1" x1="897" x2="897" y1="523" y2="528"/>
<line fill="#000000" stroke="#000000" stroke-width="1" x1="897" x2="897" y1="533" y2="538"/>
<line fill="#000000" stroke="#000000" stroke-width="1" x1="897" x2="897" y1="543" y2="548"/>
<line fill="#000000" stroke="#000000" stroke-width="1" x1="897" x2="897" y1="553" y2="555"/>
<rect fill="#ffffff" height="50" stroke="#ffffff" stroke-width="1" width="20" x="887" y="286"/>
<rect fill="none" height="50" stroke="#000000" stroke-width="1" width="20" x="887" y="286"/>
<rect fill="#ffffff" height="50" stroke="#ffffff" stroke-width="1" width="150" x="822" y="14"/>
<rect fill="none" height="50" stroke="#000000" stroke-width="1" width="150" x="822" y="14"/>
<text font-family="Dialog" font-size="12" x="861" y="46">
/RegPerson</text>
<text font-family="Dialog" font-size="12" x="854" y="27">
&lt;&lt;System&gt;&gt;</text>
<line fill="#000000" stroke="#000000" stroke-width="1" x1="99" x2="104" y1="102" y2="102"/>
<line fill="#000000" stroke="#000000" stroke-width="1" x1="109" x2="114" y1="102" y2="102"/>
<line fill="#000000" stroke="#000000" stroke-width="1" x1="119" x2="124" y1="102" y2="102"/>
<line fill="#000000" stroke="#000000" stroke-width="1" x1="129" x2="134" y1="102" y2="102"/>
<line fill="#000000" stroke="#000000" stroke-width="1" x1="139" x2="144" y1="102" y2="102"/>
<line fill="#000000" stroke="#000000" stroke-width="1" x1="149" x2="154" y1="102" y2="102"/>
<line fill="#000000" stroke="#000000" stroke-width="1" x1="159" x2="164" y1="102" y2="102"/>
<line fill="#000000" stroke="#000000" stroke-width="1" x1="169" x2="174" y1="102" y2="102"/>
<line fill="#000000" stroke="#000000" stroke-width="1" x1="179" x2="184" y1="102" y2="102"/>
<line fill="#000000" stroke="#000000" stroke-width="1" x1="189" x2="194" y1="102" y2="102"/>
<line fill="#000000" stroke="#000000" stroke-width="1" x1="199" x2="204" y1="102" y2="102"/>
<line fill="#000000" stroke="#000000" stroke-width="1" x1="209" x2="214" y1="102" y2="102"/>
<line fill="#000000" stroke="#000000" stroke-width="1" x1="219" x2="224" y1="102" y2="102"/>
<line fill="#000000" stroke="#000000" stroke-width="1" x1="229" x2="234" y1="102" y2="102"/>
<line fill="#000000" stroke="#000000" stroke-width="1" x1="239" x2="244" y1="102" y2="102"/>
<line fill="#000000" stroke="#000000" stroke-width="1" x1="249" x2="254" y1="102" y2="102"/>
<line fill="#000000" stroke="#000000" stroke-width="1" x1="259" x2="264" y1="102" y2="102"/>
<line fill="#000000" stroke="#000000" stroke-width="1" x1="269" x2="271" y1="102" y2="102"/>
<line fill="#000000" stroke="#000000" stroke-width="1" x1="259" x2="271" y1="109" y2="102"/>
<line fill="#000000" stroke="#000000" stroke-width="1" x1="259" x2="271" y1="95" y2="102"/>
<text font-family="Dialog" font-size="12" x="141" y="97">
desea ingresar</text>
<polyline fill="none" points="291,158 479,158" stroke="#000000" stroke-width="1"/>
<polygon fill="#000000" points="479,158 467,165 467,151" stroke="#000000" stroke-width="1"/>
<polygon fill="none" points="479,158 467,165 467,151" stroke="#000000" stroke-width="1"/>
<text font-family="Dialog" font-size="12" x="340" y="153">
Inicia sesion</text>
<line fill="#000000" stroke="#000000" stroke-width="1" x1="479" x2="474" y1="208" y2="208"/>
<line fill="#000000" stroke="#000000" stroke-width="1" x1="469" x2="464" y1="208" y2="208"/>
<line fill="#000000" stroke="#000000" stroke-width="1" x1="459" x2="454" y1="208" y2="208"/>
<line fill="#000000" stroke="#000000" stroke-width="1" x1="449" x2="444" y1="208" y2="208"/>
<line fill="#000000" stroke="#000000" stroke-width="1" x1="439" x2="434" y1="208" y2="208"/>
<line fill="#000000" stroke="#000000" stroke-width="1" x1="429" x2="424" y1="208" y2="208"/>
<line fill="#000000" stroke="#000000" stroke-width="1" x1="419" x2="414" y1="208" y2="208"/>
<line fill="#000000" stroke="#000000" stroke-width="1" x1="409" x2="404" y1="208" y2="208"/>
<line fill="#000000" stroke="#000000" stroke-width="1" x1="399" x2="394" y1="208" y2="208"/>
<line fill="#000000" stroke="#000000" stroke-width="1" x1="389" x2="384" y1="208" y2="208"/>
<line fill="#000000" stroke="#000000" stroke-width="1" x1="379" x2="374" y1="208" y2="208"/>
<line fill="#000000" stroke="#000000" stroke-width="1" x1="369" x2="364" y1="208" y2="208"/>
<line fill="#000000" stroke="#000000" stroke-width="1" x1="359" x2="354" y1="208" y2="208"/>
<line fill="#000000" stroke="#000000" stroke-width="1" x1="349" x2="344" y1="208" y2="208"/>
<line fill="#000000" stroke="#000000" stroke-width="1" x1="339" x2="334" y1="208" y2="208"/>
<line fill="#000000" stroke="#000000" stroke-width="1" x1="329" x2="324" y1="208" y2="208"/>
<line fill="#000000" stroke="#000000" stroke-width="1" x1="319" x2="314" y1="208" y2="208"/>
<line fill="#000000" stroke="#000000" stroke-width="1" x1="309" x2="304" y1="208" y2="208"/>
<line fill="#000000" stroke="#000000" stroke-width="1" x1="299" x2="294" y1="208" y2="208"/>
<line fill="#000000" stroke="#000000" stroke-width="1" x1="303" x2="291" y1="201" y2="208"/>
<line fill="#000000" stroke="#000000" stroke-width="1" x1="303" x2="291" y1="215" y2="208"/>
<text font-family="Dialog" font-size="12" x="341" y="203">
Ingresa al sistema</text>
<line fill="#000000" stroke="#000000" stroke-width="1" x1="291" x2="296" y1="246" y2="246"/>
<line fill="#000000" stroke="#000000" stroke-width="1" x1="301" x2="306" y1="246" y2="246"/>
<line fill="#000000" stroke="#000000" stroke-width="1" x1="311" x2="316" y1="246" y2="246"/>
<line fill="#000000" stroke="#000000" stroke-width="1" x1="321" x2="326" y1="246" y2="246"/>
<line fill="#000000" stroke="#000000" stroke-width="1" x1="331" x2="336" y1="246" y2="246"/>
<line fill="#000000" stroke="#000000" stroke-width="1" x1="341" x2="346" y1="246" y2="246"/>
<line fill="#000000" stroke="#000000" stroke-width="1" x1="351" x2="356" y1="246" y2="246"/>
<line fill="#000000" stroke="#000000" stroke-width="1" x1="361" x2="366" y1="246" y2="246"/>
<line fill="#000000" stroke="#000000" stroke-width="1" x1="371" x2="376" y1="246" y2="246"/>
<line fill="#000000" stroke="#000000" stroke-width="1" x1="381" x2="386" y1="246" y2="246"/>
<line fill="#000000" stroke="#000000" stroke-width="1" x1="391" x2="396" y1="246" y2="246"/>
<line fill="#000000" stroke="#000000" stroke-width="1" x1="401" x2="406" y1="246" y2="246"/>
<line fill="#000000" stroke="#000000" stroke-width="1" x1="411" x2="416" y1="246" y2="246"/>
<line fill="#000000" stroke="#000000" stroke-width="1" x1="421" x2="426" y1="246" y2="246"/>
<line fill="#000000" stroke="#000000" stroke-width="1" x1="431" x2="436" y1="246" y2="246"/>
<line fill="#000000" stroke="#000000" stroke-width="1" x1="441" x2="446" y1="246" y2="246"/>
<line fill="#000000" stroke="#000000" stroke-width="1" x1="451" x2="456" y1="246" y2="246"/>
<line fill="#000000" stroke="#000000" stroke-width="1" x1="461" x2="466" y1="246" y2="246"/>
<line fill="#000000" stroke="#000000" stroke-width="1" x1="471" x2="476" y1="246" y2="246"/>
<line fill="#000000" stroke="#000000" stroke-width="1" x1="481" x2="486" y1="246" y2="246"/>
<line fill="#000000" stroke="#000000" stroke-width="1" x1="491" x2="496" y1="246" y2="246"/>
<line fill="#000000" stroke="#000000" stroke-width="1" x1="501" x2="506" y1="246" y2="246"/>
<line fill="#000000" stroke="#000000" stroke-width="1" x1="511" x2="516" y1="246" y2="246"/>
<line fill="#000000" stroke="#000000" stroke-width="1" x1="521" x2="526" y1="246" y2="246"/>
<line fill="#000000" stroke="#000000" stroke-width="1" x1="531" x2="536" y1="246" y2="246"/>
<line fill="#000000" stroke="#000000" stroke-width="1" x1="541" x2="546" y1="246" y2="246"/>
<line fill="#000000" stroke="#000000" stroke-width="1" x1="551" x2="556" y1="246" y2="246"/>
<line fill="#000000" stroke="#000000" stroke-width="1" x1="561" x2="566" y1="246" y2="246"/>
<line fill="#000000" stroke="#000000" stroke-width="1" x1="571" x2="576" y1="246" y2="246"/>
<line fill="#000000" stroke="#000000" stroke-width="1" x1="581" x2="586" y1="246" y2="246"/>
<line fill="#000000" stroke="#000000" stroke-width="1" x1="591" x2="596" y1="246" y2="246"/>
<line fill="#000000" stroke="#000000" stroke-width="1" x1="601" x2="606" y1="246" y2="246"/>
<line fill="#000000" stroke="#000000" stroke-width="1" x1="611" x2="616" y1="246" y2="246"/>
<line fill="#000000" stroke="#000000" stroke-width="1" x1="621" x2="626" y1="246" y2="246"/>
<line fill="#000000" stroke="#000000" stroke-width="1" x1="631" x2="636" y1="246" y2="246"/>
<line fill="#000000" stroke="#000000" stroke-width="1" x1="641" x2="646" y1="246" y2="246"/>
<line fill="#000000" stroke="#000000" stroke-width="1" x1="651" x2="656" y1="246" y2="246"/>
<line fill="#000000" stroke="#000000" stroke-width="1" x1="661" x2="666" y1="246" y2="246"/>
<line fill="#000000" stroke="#000000" stroke-width="1" x1="671" x2="676" y1="246" y2="246"/>
<line fill="#000000" stroke="#000000" stroke-width="1" x1="667" x2="679" y1="253" y2="246"/>
<line fill="#000000" stroke="#000000" stroke-width="1" x1="667" x2="679" y1="239" y2="246"/>
<text font-family="Dialog" font-size="12" x="441" y="241">
Llena el formulario</text>
<polyline fill="none" points="291,286 887,286" stroke="#000000" stroke-width="1"/>
<polygon fill="#000000" points="887,286 875,293 875,279" stroke="#000000" stroke-width="1"/>
<polygon fill="none" points="887,286 875,293 875,279" stroke="#000000" stroke-width="1"/>
<text font-family="Dialog" font-size="12" x="545" y="281">
guardarFormulario()</text>
<line fill="#000000" stroke="#000000" stroke-width="1" x1="887" x2="882" y1="336" y2="336"/>
<line fill="#000000" stroke="#000000" stroke-width="1" x1="877" x2="872" y1="336" y2="336"/>
<line fill="#000000" stroke="#000000" stroke-width="1" x1="867" x2="862" y1="336" y2="336"/>
<line fill="#000000" stroke="#000000" stroke-width="1" x1="857" x2="852" y1="336" y2="336"/>
<line fill="#000000" stroke="#000000" stroke-width="1" x1="847" x2="842" y1="336" y2="336"/>
<line fill="#000000" stroke="#000000" stroke-width="1" x1="837" x2="832" y1="336" y2="336"/>
<line fill="#000000" stroke="#000000" stroke-width="1" x1="827" x2="822" y1="336" y2="336"/>
<line fill="#000000" stroke="#000000" stroke-width="1" x1="817" x2="812" y1="336" y2="336"/>
<line fill="#000000" stroke="#000000" stroke-width="1" x1="807" x2="802" y1="336" y2="336"/>
<line fill="#000000" stroke="#000000" stroke-width="1" x1="797" x2="792" y1="336" y2="336"/>
<line fill="#000000" stroke="#000000" stroke-width="1" x1="787" x2="782" y1="336" y2="336"/>
<line fill="#000000" stroke="#000000" stroke-width="1" x1="777" x2="772" y1="336" y2="336"/>
<line fill="#000000" stroke="#000000" stroke-width="1" x1="767" x2="762" y1="336" y2="336"/>
<line fill="#000000" stroke="#000000" stroke-width="1" x1="757" x2="752" y1="336" y2="336"/>
<line fill="#000000" stroke="#000000" stroke-width="1" x1="747" x2="742" y1="336" y2="336"/>
<line fill="#000000" stroke="#000000" stroke-width="1" x1="737" x2="732" y1="336" y2="336"/>
<line fill="#000000" stroke="#000000" stroke-width="1" x1="727" x2="722" y1="336" y2="336"/>
<line fill="#000000" stroke="#000000" stroke-width="1" x1="717" x2="712" y1="336" y2="336"/>
<line fill="#000000" stroke="#000000" stroke-width="1" x1="707" x2="702" y1="336" y2="336"/>
<line fill="#000000" stroke="#000000" stroke-width="1" x1="697" x2="692" y1="336" y2="336"/>
<line fill="#000000" stroke="#000000" stroke-width="1" x1="687" x2="682" y1="336" y2="336"/>
<line fill="#000000" stroke="#000000" stroke-width="1" x1="677" x2="672" y1="336" y2="336"/>
<line fill="#000000" stroke="#000000" stroke-width="1" x1="667" x2="662" y1="336" y2="336"/>
<line fill="#000000" stroke="#000000" stroke-width="1" x1="657" x2="652" y1="336" y2="336"/>
<line fill="#000000" stroke="#000000" stroke-width="1" x1="647" x2="642" y1="336" y2="336"/>
<line fill="#000000" stroke="#000000" stroke-width="1" x1="637" x2="632" y1="336" y2="336"/>
<line fill="#000000" stroke="#000000" stroke-width="1" x1="627" x2="622" y1="336" y2="336"/>
<line fill="#000000" stroke="#000000" stroke-width="1" x1="617" x2="612" y1="336" y2="336"/>
<line fill="#000000" stroke="#000000" stroke-width="1" x1="607" x2="602" y1="336" y2="336"/>
<line fill="#000000" stroke="#000000" stroke-width="1" x1="597" x2="592" y1="336" y2="336"/>
<line fill="#000000" stroke="#000000" stroke-width="1" x1="587" x2="582" y1="336" y2="336"/>
<line fill="#000000" stroke="#000000" stroke-width="1" x1="577" x2="572" y1="336" y2="336"/>
<line fill="#000000" stroke="#000000" stroke-width="1" x1="567" x2="562" y1="336" y2="336"/>
<line fill="#000000" stroke="#000000" stroke-width="1" x1="557" x2="552" y1="336" y2="336"/>
<line fill="#000000" stroke="#000000" stroke-width="1" x1="547" x2="542" y1="336" y2="336"/>
<line fill="#000000" stroke="#000000" stroke-width="1" x1="537" x2="532" y1="336" y2="336"/>
<line fill="#000000" stroke="#000000" stroke-width="1" x1="527" x2="522" y1="336" y2="336"/>
<line fill="#000000" stroke="#000000" stroke-width="1" x1="517" x2="512" y1="336" y2="336"/>
<line fill="#000000" stroke="#000000" stroke-width="1" x1="507" x2="502" y1="336" y2="336"/>
<line fill="#000000" stroke="#000000" stroke-width="1" x1="497" x2="492" y1="336" y2="336"/>
<line fill="#000000" stroke="#000000" stroke-width="1" x1="487" x2="482" y1="336" y2="336"/>
<line fill="#000000" stroke="#000000" stroke-width="1" x1="477" x2="472" y1="336" y2="336"/>
<line fill="#000000" stroke="#000000" stroke-width="1" x1="467" x2="462" y1="336" y2="336"/>
<line fill="#000000" stroke="#000000" stroke-width="1" x1="457" x2="452" y1="336" y2="336"/>
<line fill="#000000" stroke="#000000" stroke-width="1" x1="447" x2="442" y1="336" y2="336"/>
<line fill="#000000" stroke="#000000" stroke-width="1" x1="437" x2="432" y1="336" y2="336"/>
<line fill="#000000" stroke="#000000" stroke-width="1" x1="427" x2="422" y1="336" y2="336"/>
<line fill="#000000" stroke="#000000" stroke-width="1" x1="417" x2="412" y1="336" y2="336"/>
<line fill="#000000" stroke="#000000" stroke-width="1" x1="407" x2="402" y1="336" y2="336"/>
<line fill="#000000" stroke="#000000" stroke-width="1" x1="397" x2="392" y1="336" y2="336"/>
<line fill="#000000" stroke="#000000" stroke-width="1" x1="387" x2="382" y1="336" y2="336"/>
<line fill="#000000" stroke="#000000" stroke-width="1" x1="377" x2="372" y1="336" y2="336"/>
<line fill="#000000" stroke="#000000" stroke-width="1" x1="367" x2="362" y1="336" y2="336"/>
<line fill="#000000" stroke="#000000" stroke-width="1" x1="357" x2="352" y1="336" y2="336"/>
<line fill="#000000" stroke="#000000" stroke-width="1" x1="347" x2="342" y1="336" y2="336"/>
<line fill="#000000" stroke="#000000" stroke-width="1" x1="337" x2="332" y1="336" y2="336"/>
<line fill="#000000" stroke="#000000" stroke-width="1" x1="327" x2="322" y1="336" y2="336"/>
<line fill="#000000" stroke="#000000" stroke-width="1" x1="317" x2="312" y1="336" y2="336"/>
<line fill="#000000" stroke="#000000" stroke-width="1" x1="307" x2="302" y1="336" y2="336"/>
<line fill="#000000" stroke="#000000" stroke-width="1" x1="297" x2="292" y1="336" y2="336"/>
<line fill="#000000" stroke="#000000" stroke-width="1" x1="303" x2="291" y1="329" y2="336"/>
<line fill="#000000" stroke="#000000" stroke-width="1" x1="303" x2="291" y1="343" y2="336"/>
<text font-family="Dialog" font-size="12" x="545" y="331">
Formulario guardado</text>
<line fill="#000000" stroke="#000000" stroke-width="1" x1="99" x2="104" y1="134" y2="134"/>
<line fill="#000000" stroke="#000000" stroke-width="1" x1="109" x2="114" y1="134" y2="134"/>
<line fill="#000000" stroke="#000000" stroke-width="1" x1="119" x2="124" y1="134" y2="134"/>
<line fill="#000000" stroke="#000000" stroke-width="1" x1="129" x2="134" y1="134" y2="134"/>
<line fill="#000000" stroke="#000000" stroke-width="1" x1="139" x2="144" y1="134" y2="134"/>
<line fill="#000000" stroke="#000000" stroke-width="1" x1="149" x2="154" y1="134" y2="134"/>
<line fill="#000000" stroke="#000000" stroke-width="1" x1="159" x2="164" y1="134" y2="134"/>
<line fill="#000000" stroke="#000000" stroke-width="1" x1="169" x2="174" y1="134" y2="134"/>
<line fill="#000000" stroke="#000000" stroke-width="1" x1="179" x2="184" y1="134" y2="134"/>
<line fill="#000000" stroke="#000000" stroke-width="1" x1="189" x2="194" y1="134" y2="134"/>
<line fill="#000000" stroke="#000000" stroke-width="1" x1="199" x2="204" y1="134" y2="134"/>
<line fill="#000000" stroke="#000000" stroke-width="1" x1="209" x2="214" y1="134" y2="134"/>
<line fill="#000000" stroke="#000000" stroke-width="1" x1="219" x2="224" y1="134" y2="134"/>
<line fill="#000000" stroke="#000000" stroke-width="1" x1="229" x2="234" y1="134" y2="134"/>
<line fill="#000000" stroke="#000000" stroke-width="1" x1="239" x2="244" y1="134" y2="134"/>
<line fill="#000000" stroke="#000000" stroke-width="1" x1="249" x2="254" y1="134" y2="134"/>
<line fill="#000000" stroke="#000000" stroke-width="1" x1="259" x2="264" y1="134" y2="134"/>
<line fill="#000000" stroke="#000000" stroke-width="1" x1="269" x2="271" y1="134" y2="134"/>
<line fill="#000000" stroke="#000000" stroke-width="1" x1="259" x2="271" y1="141" y2="134"/>
<line fill="#000000" stroke="#000000" stroke-width="1" x1="259" x2="271" y1="127" y2="134"/>
<text font-family="Dialog" font-size="12" x="114" y="129">
Provee sus datos y CI</text>
</svg>
